<svg id="Layer_1" data-name="Layer 1" xmlns="http://www.w3.org/2000/svg" xmlns:xlink="http://www.w3.org/1999/xlink" viewBox="0 0 207.03 171.93"><defs><style>.cls-1{fill:#ff9c53;}.cls-2{fill:#ffbc3f;}.cls-3{fill:url(#linear-gradient);}.cls-4{fill:url(#linear-gradient-2);}.cls-5{fill:url(#linear-gradient-3);}.cls-6{fill:url(#linear-gradient-4);}.cls-7{fill:url(#linear-gradient-5);}.cls-8{fill:#33e7d2;}.cls-9{fill:#5a43db;}.cls-10{fill:#4e90f9;}.cls-11{fill:#2f761b;}.cls-12{fill:#27145a;}.cls-13{fill:#3c2da1;}.cls-14{fill:#211155;}.cls-15{fill:url(#linear-gradient-6);}.cls-16{fill:url(#linear-gradient-7);}.cls-17{fill:#a2b7e8;}.cls-18{fill:#8297d2;}.cls-19{fill:url(#linear-gradient-8);}.cls-20{fill:url(#linear-gradient-9);}.cls-21{fill:#bfcdef;}.cls-22{fill:url(#linear-gradient-10);}.cls-23{fill:url(#linear-gradient-11);}.cls-24{fill:url(#linear-gradient-12);}.cls-25{fill:#d0dbf8;}</style><linearGradient id="linear-gradient" x1="5978.54" y1="338.86" x2="6105.32" y2="338.86" gradientTransform="matrix(-1, 0, 0, 1, 6181.34, -251.23)" gradientUnits="userSpaceOnUse"><stop offset="0" stop-color="#eef2fc"/><stop offset="0.36" stop-color="#e9eefb"/><stop offset="0.76" stop-color="#dce4fa"/><stop offset="1" stop-color="#d0dbf8"/></linearGradient><linearGradient id="linear-gradient-2" x1="38.45" y1="110.41" x2="85.06" y2="110.41" gradientUnits="userSpaceOnUse"><stop offset="0" stop-color="#0bc0cf"/><stop offset="1" stop-color="#33e7d2"/></linearGradient><linearGradient id="linear-gradient-3" x1="92.48" y1="72.91" x2="117.85" y2="72.91" xlink:href="#linear-gradient-2"/><linearGradient id="linear-gradient-4" x1="110.07" y1="44.13" x2="135.92" y2="44.13" xlink:href="#linear-gradient-2"/><linearGradient id="linear-gradient-5" x1="128.14" y1="20.59" x2="162.19" y2="20.59" xlink:href="#linear-gradient-2"/><linearGradient id="linear-gradient-6" x1="6082.62" y1="298.98" x2="6099.83" y2="298.98" gradientTransform="matrix(-1, 0, 0, 1, 6642.01, 0)" gradientUnits="userSpaceOnUse"><stop offset="0" stop-color="#d0dbf8"/><stop offset="1" stop-color="#a2b7e8"/></linearGradient><linearGradient id="linear-gradient-7" x1="6080.66" y1="300.84" x2="6094.07" y2="300.84" gradientTransform="matrix(-1, 0, 0, 1, 6642.01, 0)" xlink:href="#linear-gradient"/><linearGradient id="linear-gradient-8" x1="65.98" y1="43.8" x2="89.7" y2="43.8" gradientTransform="matrix(1, 0, 0, 1, 0, 0)" xlink:href="#linear-gradient"/><linearGradient id="linear-gradient-9" x1="71.39" y1="43.97" x2="94.45" y2="43.97" gradientTransform="matrix(1, 0, 0, 1, 0, 0)" xlink:href="#linear-gradient-6"/><linearGradient id="linear-gradient-10" x1="6107.82" y1="288.14" x2="6125.04" y2="288.14" xlink:href="#linear-gradient-6"/><linearGradient id="linear-gradient-11" x1="6105.87" y1="290" x2="6119.27" y2="290" gradientTransform="matrix(-1, 0, 0, 1, 6642.01, 0)" xlink:href="#linear-gradient"/><linearGradient id="linear-gradient-12" x1="7377.29" y1="399.44" x2="7418.94" y2="399.44" gradientTransform="matrix(-1, 0, 0, 1, 7483.18, -251.23)" gradientUnits="userSpaceOnUse"><stop offset="0" stop-color="#f7f9fe"/><stop offset="0.42" stop-color="#f2f5fd"/><stop offset="0.88" stop-color="#e5ebfb"/><stop offset="1" stop-color="#e0e7fa"/></linearGradient></defs><polygon class="cls-1" points="145.11 138.67 58.05 88.4 207.03 99.79 207.03 101.96 145.11 138.67"/><polygon class="cls-2" points="145.11 136.51 58.05 86.24 119.96 49.52 207.03 99.79 145.11 136.51"/><polygon class="cls-3" points="150.11 124.64 76.02 81.86 128.71 50.62 202.8 93.4 150.11 124.64"/><polygon class="cls-1" points="145.11 116.86 145.11 136.51 128.1 126.68 145.11 116.86"/><polygon class="cls-1" points="87.07 171.93 0 121.66 0 119.1 145.11 119.42 87.07 171.93"/><polygon class="cls-2" points="87.07 169.37 0 119.1 58.05 66.59 145.11 116.86 87.07 169.37"/><polygon class="cls-4" points="77.28 85.31 38.45 130.94 46.23 135.52 85.06 89.86 77.28 85.31"/><polygon class="cls-5" points="92.48 94.72 100.47 98.75 117.85 51.62 110.07 47.07 92.48 94.72"/><polygon class="cls-6" points="110.07 47.07 117.85 51.62 135.92 41.19 128.14 36.63 110.07 47.07"/><polygon class="cls-7" points="154.41 0 131.65 8.41 141.24 13.94 128.14 36.63 135.92 41.19 149.02 18.5 162.19 4.55 154.41 0"/><polygon class="cls-8" points="162.19 4.55 139.47 12.92 149.02 18.5 135.92 41.19 117.85 51.62 100.47 98.75 85.06 89.86 46.23 135.5 54.02 140.07 87.03 101.27 105.16 111.73 125.08 57.71 142.43 47.7 156.72 22.94 165.85 28.21 162.19 4.55"/><path class="cls-9" d="M516.73,394.53l-.07,0-7.79-4.58a.14.14,0,0,1-.07-.1.17.17,0,0,1,0-.12l38.83-45.64a.15.15,0,0,1,.19,0l15.26,8.8,17.32-47a.11.11,0,0,1,.06-.07l18-10.42,13-22.52-9.42-5.5a.14.14,0,0,1-.07-.14.14.14,0,0,1,.1-.13l22.72-8.37a.2.2,0,0,1,.13,0,.14.14,0,0,1,.07.11l3.66,23.66a.14.14,0,0,1-.06.14.14.14,0,0,1-.16,0l-9-5.2-14.21,24.63-.06.06-17.3,10-19.9,54a.16.16,0,0,1-.09.09.15.15,0,0,1-.13,0l-18-10.4-32.93,38.71A.17.17,0,0,1,516.73,394.53Zm-7.55-4.77,7.52,4.43,32.94-38.71a.13.13,0,0,1,.18,0l18,10.37L587.66,312a.16.16,0,0,1,.06-.08l17.32-10,14.27-24.73a.16.16,0,0,1,.21-.05l8.85,5.11-3.58-23.17-22.25,8.2,9.27,5.41a.16.16,0,0,1,.06.21l-13.1,22.69-.06.05-18,10.41-17.37,47.08a.12.12,0,0,1-.08.09.15.15,0,0,1-.13,0l-15.3-8.83Z" transform="translate(-460.67 -251.23)"/><path class="cls-8" d="M518.61,308.23a2.09,2.09,0,1,0,2.19,2A2.09,2.09,0,0,0,518.61,308.23Z" transform="translate(-460.67 -251.23)"/><path class="cls-10" d="M464.46,364.59a2.09,2.09,0,1,0,2.17-2A2.1,2.1,0,0,0,464.46,364.59Z" transform="translate(-460.67 -251.23)"/><path class="cls-11" d="M595.18,401.41a2.09,2.09,0,1,0,2.17-2A2.09,2.09,0,0,0,595.18,401.41Z" transform="translate(-460.67 -251.23)"/><path class="cls-9" d="M555.34,374.11h-.09a2.24,2.24,0,0,1-2.16-2.32,2.25,2.25,0,0,1,2.24-2.16h.09a2.24,2.24,0,0,1,2.15,2.33,2.19,2.19,0,0,1-.71,1.55A2.23,2.23,0,0,1,555.34,374.11Zm-2-2.31a1.95,1.95,0,0,0,1.87,2h.08a1.93,1.93,0,0,0,1.94-1.87,1.94,1.94,0,0,0-1.87-2h-.08A2,2,0,0,0,553.39,371.8Z" transform="translate(-460.67 -251.23)"/><path class="cls-10" d="M653.07,326.19a5.24,5.24,0,0,1,2.53,5.44c-.66,3.67-1.58,8.85-1.65,9.05A3.93,3.93,0,0,1,652,343l-33.59,18.73a8.78,8.78,0,0,1-8.44,0l-27.1-15.63a4,4,0,0,1-2.09-3.2l0-2.18c0-1.42.65-2.34,2.12-3.15l32.32-18,3.33-9.82a2.56,2.56,0,0,1,3.71-1.39Z" transform="translate(-460.67 -251.23)"/><path class="cls-12" d="M652.15,329.05c-.41,2.28-1,5.53-1.39,7.43a1.11,1.11,0,0,1-1.66.76l-30.64-17.68a1.42,1.42,0,0,1-.64-1.69l2.34-6.79a1.12,1.12,0,0,1,1.62-.61l29.69,17.1A1.41,1.41,0,0,1,652.15,329.05Z" transform="translate(-460.67 -251.23)"/><path class="cls-13" d="M654,329.13l-2.06,10.78a1.26,1.26,0,0,1-.6.79l-33,18.35a8.75,8.75,0,0,1-8.45,0L582.8,343.42a4,4,0,0,1-1.39-1.26.82.82,0,0,0,0,.19,3.31,3.31,0,0,0,1.74,2.67l27.09,15.62a8,8,0,0,0,7.74,0l34-18.93a1.81,1.81,0,0,0,.82-1.34c.2-1.05,1.16-6.39,1.61-8.87A3.3,3.3,0,0,0,654,329.13Z" transform="translate(-460.67 -251.23)"/><path class="cls-12" d="M613.26,324.49v.88a.34.34,0,0,0,.16.29l5,2.86a.86.86,0,0,0,.85,0l2.19-1.27a.35.35,0,0,0,.17-.3v-.77Z" transform="translate(-460.67 -251.23)"/><path class="cls-11" d="M613.43,324.21l2.18-1.27a.84.84,0,0,1,.85,0l5,2.87a.34.34,0,0,1,0,.58l-2.19,1.27a.86.86,0,0,1-.85,0l-5-2.86A.33.33,0,0,1,613.43,324.21Z" transform="translate(-460.67 -251.23)"/><path class="cls-12" d="M604.83,329.37v.88a.32.32,0,0,0,.17.29l5,2.86a.86.86,0,0,0,.85,0l5-2.88a.31.31,0,0,0,.16-.29v-.78Z" transform="translate(-460.67 -251.23)"/><path class="cls-13" d="M605,329.09l5-2.88a.86.86,0,0,1,.85,0l5,2.86a.34.34,0,0,1,0,.58l-5,2.88a.84.84,0,0,1-.84,0l-5-2.86A.33.33,0,0,1,605,329.09Z" transform="translate(-460.67 -251.23)"/><path class="cls-12" d="M609.32,351.5v.88a.34.34,0,0,0,.17.29l5,2.86a.86.86,0,0,0,.85,0l13.39-7.76a.33.33,0,0,0,.17-.29v-.78Z" transform="translate(-460.67 -251.23)"/><path class="cls-8" d="M609.48,351.22l13.4-7.76a.86.86,0,0,1,.85,0l5,2.86a.34.34,0,0,1,0,.58l-13.4,7.76a.83.83,0,0,1-.85,0l-5-2.87A.33.33,0,0,1,609.48,351.22Z" transform="translate(-460.67 -251.23)"/><path class="cls-12" d="M620.39,328.63v.88a.32.32,0,0,0,.17.29l5,2.86a.86.86,0,0,0,.85,0l2.19-1.27a.35.35,0,0,0,.17-.29v-.78Z" transform="translate(-460.67 -251.23)"/><path class="cls-13" d="M620.56,328.35l2.19-1.27a.84.84,0,0,1,.84,0l5,2.86a.33.33,0,0,1,0,.58l-2.19,1.27a.82.82,0,0,1-.84,0l-5-2.86A.33.33,0,0,1,620.56,328.35Z" transform="translate(-460.67 -251.23)"/><path class="cls-12" d="M612,333.51v.88a.32.32,0,0,0,.17.29l5,2.87a.82.82,0,0,0,.84,0l5-2.88a.32.32,0,0,0,.17-.29v-.77Z" transform="translate(-460.67 -251.23)"/><path class="cls-13" d="M612.13,333.23l5-2.88a.84.84,0,0,1,.84,0l5,2.86a.34.34,0,0,1,0,.59l-5,2.88a.84.84,0,0,1-.84,0l-5-2.86A.35.35,0,0,1,612.13,333.23Z" transform="translate(-460.67 -251.23)"/><path class="cls-12" d="M603.53,338.4v.88a.35.35,0,0,0,.17.29l5,2.86a.84.84,0,0,0,.84,0l5-2.88a.35.35,0,0,0,.17-.29v-.78Z" transform="translate(-460.67 -251.23)"/><path class="cls-13" d="M603.7,338.12l5-2.88a.82.82,0,0,1,.84,0l5,2.87a.33.33,0,0,1,0,.58l-5,2.88a.86.86,0,0,1-.85,0l-5-2.86A.34.34,0,0,1,603.7,338.12Z" transform="translate(-460.67 -251.23)"/><path class="cls-12" d="M595.1,343.28v.88a.35.35,0,0,0,.17.29l5,2.86a.84.84,0,0,0,.84,0l5-2.88a.35.35,0,0,0,.17-.29v-.78Z" transform="translate(-460.67 -251.23)"/><path class="cls-13" d="M595.27,343l5-2.88a.86.86,0,0,1,.85,0l5,2.86a.33.33,0,0,1,0,.58l-5,2.88a.86.86,0,0,1-.85,0l-5-2.86A.34.34,0,0,1,595.27,343Z" transform="translate(-460.67 -251.23)"/><path class="cls-12" d="M596.4,334.22v.88a.32.32,0,0,0,.17.29l5,2.86a.86.86,0,0,0,.85,0l5-2.88a.34.34,0,0,0,.17-.29v-.78Z" transform="translate(-460.67 -251.23)"/><path class="cls-13" d="M596.57,333.94l5-2.88a.86.86,0,0,1,.85,0l5,2.86a.34.34,0,0,1,0,.58l-5,2.88a.82.82,0,0,1-.84,0l-5-2.87A.33.33,0,0,1,596.57,333.94Z" transform="translate(-460.67 -251.23)"/><path class="cls-12" d="M588,339.11V340a.32.32,0,0,0,.17.29l5,2.87a.84.84,0,0,0,.84,0l5-2.89a.32.32,0,0,0,.17-.29v-.77Z" transform="translate(-460.67 -251.23)"/><path class="cls-13" d="M588.14,338.83l5-2.89a.84.84,0,0,1,.84,0l5,2.87a.33.33,0,0,1,0,.58l-5,2.88a.84.84,0,0,1-.84,0l-5-2.86A.33.33,0,0,1,588.14,338.83Z" transform="translate(-460.67 -251.23)"/><path class="cls-12" d="M627.52,332.78v.87a.32.32,0,0,0,.17.29l5,2.87a.82.82,0,0,0,.84,0l2.19-1.27a.31.31,0,0,0,.17-.29v-.78Z" transform="translate(-460.67 -251.23)"/><path class="cls-13" d="M627.69,332.49l2.19-1.27a.86.86,0,0,1,.85,0l5,2.86a.34.34,0,0,1,0,.59l-2.19,1.27a.86.86,0,0,1-.85,0l-5-2.86A.35.35,0,0,1,627.69,332.49Z" transform="translate(-460.67 -251.23)"/><path class="cls-12" d="M619.09,337.66v.88a.35.35,0,0,0,.17.29l5,2.86a.86.86,0,0,0,.85,0l5-2.88a.35.35,0,0,0,.17-.29v-.78Z" transform="translate(-460.67 -251.23)"/><path class="cls-13" d="M619.26,337.38l5-2.88a.83.83,0,0,1,.85,0l5,2.86a.33.33,0,0,1,0,.58l-5,2.88a.86.86,0,0,1-.85,0l-5-2.86A.34.34,0,0,1,619.26,337.38Z" transform="translate(-460.67 -251.23)"/><path class="cls-12" d="M610.67,342.54v.88a.34.34,0,0,0,.17.29l5,2.86a.86.86,0,0,0,.85,0l5-2.88a.32.32,0,0,0,.17-.29v-.78Z" transform="translate(-460.67 -251.23)"/><path class="cls-13" d="M610.83,342.26l5-2.88a.86.86,0,0,1,.85,0l5,2.86a.33.33,0,0,1,0,.58l-5,2.88a.86.86,0,0,1-.85,0l-5-2.86A.34.34,0,0,1,610.83,342.26Z" transform="translate(-460.67 -251.23)"/><path class="cls-12" d="M602.24,347.42v.88a.32.32,0,0,0,.17.29l5,2.86a.84.84,0,0,0,.85,0l5-2.88a.32.32,0,0,0,.17-.29v-.78Z" transform="translate(-460.67 -251.23)"/><path class="cls-13" d="M602.4,347.14l5-2.88a.86.86,0,0,1,.85,0l5,2.86a.34.34,0,0,1,0,.58l-5,2.88a.83.83,0,0,1-.85,0l-5-2.87A.34.34,0,0,1,602.4,347.14Z" transform="translate(-460.67 -251.23)"/><path class="cls-12" d="M634.66,336.92v.88a.35.35,0,0,0,.17.29l5,2.86a.86.86,0,0,0,.85,0l2.19-1.27a.34.34,0,0,0,.16-.29v-.78Z" transform="translate(-460.67 -251.23)"/><path class="cls-13" d="M634.82,336.64l2.19-1.27a.84.84,0,0,1,.85,0l5,2.86a.34.34,0,0,1,0,.58l-2.19,1.27a.86.86,0,0,1-.85,0l-5-2.86A.34.34,0,0,1,634.82,336.64Z" transform="translate(-460.67 -251.23)"/><path class="cls-12" d="M626.23,341.8v.88a.34.34,0,0,0,.17.29l5,2.86a.86.86,0,0,0,.85,0l5-2.88a.33.33,0,0,0,.16-.29v-.78Z" transform="translate(-460.67 -251.23)"/><path class="cls-13" d="M626.39,341.52l5-2.88a.86.86,0,0,1,.85,0l5,2.86a.34.34,0,0,1,0,.58l-5,2.88a.81.81,0,0,1-.85,0l-5-2.86A.33.33,0,0,1,626.39,341.52Z" transform="translate(-460.67 -251.23)"/><path class="cls-8" d="M623.84,321l-.07,0-3.91-2.26a.15.15,0,0,1-.06-.2.15.15,0,0,1,.21-.06l3.91,2.26a.15.15,0,0,1,.05.2A.14.14,0,0,1,623.84,321Z" transform="translate(-460.67 -251.23)"/><path class="cls-14" d="M626.83,338.85a.1.1,0,0,1-.07,0l-3.91-2.25a.15.15,0,0,1,.15-.26l3.91,2.25a.16.16,0,0,1,.05.21A.13.13,0,0,1,626.83,338.85Z" transform="translate(-460.67 -251.23)"/><path class="cls-14" d="M632.35,334.16l-.07,0-1.41-.81a.16.16,0,0,1-.06-.21.15.15,0,0,1,.21-.05l1.41.81a.15.15,0,0,1,.05.21A.14.14,0,0,1,632.35,334.16Z" transform="translate(-460.67 -251.23)"/><path class="cls-14" d="M625.36,330a.1.1,0,0,1-.07,0l-1.41-.81a.15.15,0,1,1,.15-.26l1.41.81a.16.16,0,0,1,0,.21A.14.14,0,0,1,625.36,330Z" transform="translate(-460.67 -251.23)"/><path class="cls-14" d="M618,325.85l-.07,0-1.41-.82a.15.15,0,0,1-.06-.2.16.16,0,0,1,.21-.05l1.41.81a.14.14,0,0,1,.05.2A.13.13,0,0,1,618,325.85Z" transform="translate(-460.67 -251.23)"/><path class="cls-14" d="M639.72,338.28l-.07,0-1.41-.81a.16.16,0,0,1-.06-.21.16.16,0,0,1,.21-.05l1.41.81a.16.16,0,0,1,.05.21A.14.14,0,0,1,639.72,338.28Z" transform="translate(-460.67 -251.23)"/><path class="cls-14" d="M610,348.56l-.08,0-3.9-2.26a.14.14,0,0,1-.06-.2.16.16,0,0,1,.21-.06l3.9,2.26a.14.14,0,0,1,.06.2A.16.16,0,0,1,610,348.56Z" transform="translate(-460.67 -251.23)"/><path class="cls-2" d="M624.32,298.22a2.09,2.09,0,1,0,2.17-2A2.1,2.1,0,0,0,624.32,298.22Z" transform="translate(-460.67 -251.23)"/><path class="cls-9" d="M654.58,375.72h-3.7a.15.15,0,0,1-.15-.15v-3.7a.15.15,0,0,1,.15-.15.15.15,0,0,1,.15.15v3.55h3.55a.15.15,0,0,1,.15.15A.15.15,0,0,1,654.58,375.72Z" transform="translate(-460.67 -251.23)"/><path class="cls-9" d="M571.81,289.25a.15.15,0,0,1-.15-.15v-3.55h-3.55a.16.16,0,0,1-.15-.16.15.15,0,0,1,.15-.15h3.7a.15.15,0,0,1,.15.15v3.7A.15.15,0,0,1,571.81,289.25Z" transform="translate(-460.67 -251.23)"/><path class="cls-9" d="M579.17,408.51a.15.15,0,0,1-.15-.15v-3.7a.15.15,0,0,1,.15-.15h3.7a.15.15,0,0,1,0,.3h-3.55v3.55A.15.15,0,0,1,579.17,408.51Z" transform="translate(-460.67 -251.23)"/><path class="cls-9" d="M500.51,357.4h-3.69a.15.15,0,0,1-.15-.15v-3.7a.15.15,0,0,1,.3,0v3.55h3.54a.15.15,0,0,1,.15.15A.14.14,0,0,1,500.51,357.4Z" transform="translate(-460.67 -251.23)"/><path d="M522.72,289.25v1.87c0,2.91.74,4.63,2.62,3.55s2.57-3.64,2.57-6.55v-1.87c0-2.91-.65-4.68-2.57-3.58S522.72,286.34,522.72,289.25Z" transform="translate(-460.67 -251.23)"/><path class="cls-15" d="M542.17,301.44c0-5.26,1.94-9.88,6.69-12.62,2-1.19,3.59-1.42,4.67-.87l.18.1,5.67,3.26-6.91,3.89c-.47,3.76-.86,6.94-4.07,9.27l1.36,5.83-5.55-3.18C542.8,306.41,542.17,304.38,542.17,301.44Z" transform="translate(-460.67 -251.23)"/><path class="cls-16" d="M547.94,304.75c0,5.16,1.94,7.55,6.68,4.81s6.72-7.39,6.72-12.55-2-7.63-6.72-4.89S547.94,299.49,547.94,304.75Zm4.53-3.45c0-2.43.55-4.55,2.15-5.48s2.19.54,2.19,3v1.56c0,2.44-.62,4.6-2.19,5.51s-2.15-.56-2.15-3Z" transform="translate(-460.67 -251.23)"/><path class="cls-17" d="M554.62,295.82c1.57-.9,2.19.54,2.19,3v1.56c0,2.44-.62,4.6-2.19,5.51s-2.15-.56-2.15-3V301.3C552.47,298.87,553,296.75,554.62,295.82Z" transform="translate(-460.67 -251.23)"/><path class="cls-18" d="M553.39,311.27a2.85,2.85,0,0,1-1.44-.36c-1.32-.76-2-2.69-2-5.74,0-5.79,2.34-10.2,6.76-12.76,2.1-1.21,3.76-1.48,4.94-.8,1.33.77,2,2.73,2,5.82,0,5.73-2.35,10.11-6.8,12.68A7.21,7.21,0,0,1,553.39,311.27Zm6.82-19.73a7.07,7.07,0,0,0-3.34,1.13c-4.32,2.5-6.61,6.82-6.61,12.5,0,2.93.62,4.78,1.84,5.48,1.07.62,2.63.35,4.62-.8,5.5-3.17,6.65-8.51,6.65-12.42,0-3-.63-4.85-1.86-5.56A2.54,2.54,0,0,0,560.21,291.54Zm-4.27,15.17a1,1,0,0,1-.51-.14c-.63-.36-.94-1.44-.94-3.29v-1.55c0-2.87.75-4.76,2.23-5.61a1.4,1.4,0,0,1,1.45-.16c.64.37,1,1.47,1,3.26v1.55c0,2.79-.81,4.79-2.27,5.64A1.87,1.87,0,0,1,555.94,306.71Zm1.71-10.59a1.59,1.59,0,0,0-.78.26c-1.38.79-2.08,2.59-2.08,5.35v1.55c0,2.13.43,2.83.79,3a1.13,1.13,0,0,0,1.14-.16c1.37-.79,2.12-2.7,2.12-5.38v-1.55c0-1.66-.28-2.69-.82-3A.69.69,0,0,0,557.65,296.12Z" transform="translate(-460.67 -251.23)"/><polygon class="cls-19" points="65.98 67.55 84.28 16.97 89.7 20.06 71.39 70.63 65.98 67.55"/><polygon class="cls-20" points="71.39 70.63 89.7 20.06 94.45 17.31 76.24 67.83 71.39 70.63"/><path class="cls-18" d="M534.06,323a.19.19,0,0,1-.1,0,.15.15,0,0,1,0-.17l18.3-50.57a.14.14,0,0,1,.07-.08l4.76-2.75a.15.15,0,0,1,.17,0,.14.14,0,0,1,0,.16l-18.21,50.53a.12.12,0,0,1-.07.07l-4.85,2.8A.1.1,0,0,1,534.06,323Zm18.42-50.62-18.14,50.14,4.44-2.57,18.06-50.08Z" transform="translate(-460.67 -251.23)"/><polygon class="cls-21" points="84.28 16.97 89.7 20.06 94.45 17.31 89.04 14.22 84.28 16.97"/><path class="cls-22" d="M517,290.6c0-5.26,1.94-9.88,6.68-12.62,2.06-1.19,3.6-1.42,4.68-.87l.17.1,5.68,3.26-6.91,3.89c-.48,3.76-.86,6.94-4.07,9.27l1.35,5.83L519,296.28C517.6,295.57,517,293.54,517,290.6Z" transform="translate(-460.67 -251.23)"/><path class="cls-23" d="M522.74,293.91c0,5.16,1.93,7.55,6.68,4.81s6.72-7.39,6.72-12.55-2-7.63-6.72-4.89S522.74,288.65,522.74,293.91Zm4.53-3.45c0-2.43.54-4.55,2.15-5.48s2.19.54,2.19,3v1.56c0,2.44-.62,4.6-2.19,5.5s-2.15-.55-2.15-3Z" transform="translate(-460.67 -251.23)"/><path class="cls-17" d="M529.42,285c1.57-.9,2.19.54,2.19,3v1.56c0,2.44-.62,4.6-2.19,5.5s-2.15-.55-2.15-3v-1.56C527.27,288,527.81,285.91,529.42,285Z" transform="translate(-460.67 -251.23)"/><path class="cls-18" d="M528.19,300.43a2.85,2.85,0,0,1-1.44-.36c-1.32-.76-2-2.69-2-5.74,0-5.79,2.34-10.2,6.76-12.76,2.1-1.21,3.76-1.48,4.94-.8s2,2.73,2,5.82c0,5.73-2.35,10.11-6.8,12.68A7.24,7.24,0,0,1,528.19,300.43ZM535,280.7a7,7,0,0,0-3.34,1.13c-4.32,2.5-6.61,6.82-6.61,12.5,0,2.93.62,4.78,1.84,5.48s2.63.35,4.62-.8c5.49-3.17,6.64-8.51,6.64-12.42,0-3-.62-4.85-1.85-5.56A2.54,2.54,0,0,0,535,280.7Zm-4.27,15.17a1,1,0,0,1-.51-.14c-.63-.36-.94-1.44-.94-3.29v-1.55c0-2.87.75-4.76,2.23-5.62a1.42,1.42,0,0,1,1.45-.15c.64.37,1,1.47,1,3.26v1.55c0,2.79-.81,4.79-2.27,5.64A1.9,1.9,0,0,1,530.74,295.87Zm1.7-10.59a1.68,1.68,0,0,0-.77.25c-1.38.8-2.08,2.6-2.08,5.36v1.55c0,2.13.43,2.83.79,3s.66.11,1.14-.16c1.37-.79,2.12-2.7,2.12-5.38v-1.55c0-1.66-.29-2.69-.82-3A.7.7,0,0,0,532.44,285.28Z" transform="translate(-460.67 -251.23)"/><polygon class="cls-1" points="85.32 144.87 102.4 147.12 85.99 163.28 64.23 147.98 85.32 144.87"/><polygon class="cls-24" points="76.59 136.9 90.6 135.18 105.89 144 86.59 161.23 64.23 147.98 76.59 136.9"/><polygon class="cls-25" points="83.95 141.14 76.59 136.9 90.6 135.18 83.95 141.14"/></svg>