<svg id="Layer_1" data-name="Layer 1" xmlns="http://www.w3.org/2000/svg" xmlns:xlink="http://www.w3.org/1999/xlink" viewBox="0 0 185.34 222.97"><defs><style>.cls-1{fill:#a2b7e8;}.cls-2{fill:url(#linear-gradient);}.cls-3{fill:#27145a;}.cls-4{fill:url(#linear-gradient-2);}.cls-5{fill:#f7f9ff;}.cls-6{fill:url(#linear-gradient-3);}.cls-7{fill:#ffa800;}.cls-8{fill:#4e90f9;}.cls-9{fill:#2f761b;}.cls-10{fill:#5a43db;}.cls-11{fill:url(#linear-gradient-4);}.cls-12{fill:url(#linear-gradient-5);}.cls-13{fill:#f3f6fd;}.cls-14{fill:#d0dbf8;}.cls-15{fill:#fcbac0;}.cls-16{fill:#003851;}.cls-17{fill:#4290c3;}.cls-18{fill:#fbada3;}.cls-19{fill:#005584;}.cls-20{fill:#ed8b8b;}.cls-21{fill:url(#linear-gradient-6);}.cls-22{fill:#003244;}.cls-23{fill:#ffbe4a;}.cls-24{fill:#009de2;}.cls-25{fill:#007cb2;}.cls-26{fill:#3c2da1;}.cls-27{fill:#211155;}</style><linearGradient id="linear-gradient" x1="94.92" y1="164.88" x2="149.84" y2="164.88" gradientUnits="userSpaceOnUse"><stop offset="0" stop-color="#eef2fc"/><stop offset="0.59" stop-color="#d9e2f9"/><stop offset="1" stop-color="#d0dbf8"/></linearGradient><linearGradient id="linear-gradient-2" x1="52.96" y1="100.83" x2="175.99" y2="100.83" gradientUnits="userSpaceOnUse"><stop offset="0" stop-color="#d5dff9"/><stop offset="1" stop-color="#eef2fc"/></linearGradient><linearGradient id="linear-gradient-3" x1="40.04" y1="95.59" x2="85.1" y2="95.59" gradientUnits="userSpaceOnUse"><stop offset="0" stop-color="#eef2fc"/><stop offset="0.36" stop-color="#e9eefb"/><stop offset="0.76" stop-color="#dce4fa"/><stop offset="1" stop-color="#d0dbf8"/></linearGradient><linearGradient id="linear-gradient-4" x1="139.63" y1="58.61" x2="184.7" y2="58.61" xlink:href="#linear-gradient-3"/><linearGradient id="linear-gradient-5" x1="116.34" y1="102.93" x2="161.41" y2="102.93" xlink:href="#linear-gradient-3"/><linearGradient id="linear-gradient-6" x1="106.24" y1="179.73" x2="178.91" y2="179.73" xlink:href="#linear-gradient"/></defs><polygon class="cls-1" points="75.5 115.56 91.53 107.76 91.53 124.43 75.5 133.73 75.5 115.56"/><path class="cls-2" d="M95,172l.06-.07c-.24-.9.37-1.94,1.78-2.76l8.64-5a4.75,4.75,0,0,0,2.37-4.12v-1.81l16-9.3v.53a2.37,2.37,0,0,0,3.56,2.05l3.81-2.19c2.2-1.27,5.5-1.5,7.36-.52l10.05,5.26a1.92,1.92,0,0,1,1.21,1.73s0,2.4,0,2.4c0,.8-.66,1.67-1.88,2.37l-34.35,19.8c-2.2,1.27-5.49,1.5-7.36.52l-10-5.26C94.61,174.68,95,173.38,95,172Z" transform="translate(-32.3 -24.51)"/><path class="cls-3" d="M96.18,173.23l10,5.26c1.87,1,5.16.75,7.36-.52L148,158.16a5.41,5.41,0,0,0,.53-.35l.34.25v.33c0,.33-.37.93-1.4,1.52l-34.35,19.81a8.35,8.35,0,0,1-4,1,5.35,5.35,0,0,1-2.43-.49l-10-5.23c-.78-.47-.84-.94-.82-2C96,173.1,96.07,173.17,96.18,173.23Z" transform="translate(-32.3 -24.51)"/><path class="cls-4" d="M53,168V96.46A14.24,14.24,0,0,1,60.09,84L161.52,25.47a7.07,7.07,0,0,1,6.73-.2c.72.38,4.2,2.3,4,2.18A7,7,0,0,1,176,33.73V105a14.26,14.26,0,0,1-7.09,12.33L67.45,176.17c-3.86,2.24-7.14.27-11.11-2.19A7,7,0,0,1,53,168Z" transform="translate(-32.3 -24.51)"/><path class="cls-3" d="M56.16,171.84a5.4,5.4,0,0,1-1.78-4V96.34a12.7,12.7,0,0,1,6.33-11L162.14,26.74a5.46,5.46,0,0,1,2.73-.74,5.66,5.66,0,0,1,1.47.2,7.65,7.65,0,0,0-1.55.69L63.36,85.45c-5.29,2.87-7.45,6.62-7.45,13v71.5A8.15,8.15,0,0,0,56.16,171.84Z" transform="translate(-32.3 -24.51)"/><polygon class="cls-5" points="134.45 12.28 134.45 81.54 33.46 140.2 33.46 70.69 134.45 12.28"/><path class="cls-6" d="M85.1,66.1V99.59a4.72,4.72,0,0,1-2.36,4.09l-39.87,23A1.88,1.88,0,0,1,40,125.07V91.56a4.71,4.71,0,0,1,2.36-4.08l39.86-23A1.88,1.88,0,0,1,85.1,66.1Z" transform="translate(-32.3 -24.51)"/><path class="cls-7" d="M110.36,100.2v.28a2.46,2.46,0,0,1-1.23,2.13L71.87,124.05a1,1,0,0,1-1.48-.85v-.29a2.46,2.46,0,0,1,1.23-2.13l37.26-21.44A1,1,0,0,1,110.36,100.2Z" transform="translate(-32.3 -24.51)"/><path class="cls-8" d="M110.36,123.64v.28a2.46,2.46,0,0,1-1.23,2.13L71.87,147.49a1,1,0,0,1-1.48-.85v-.29a2.46,2.46,0,0,1,1.23-2.13l37.26-21.43A1,1,0,0,1,110.36,123.64Z" transform="translate(-32.3 -24.51)"/><path class="cls-9" d="M92.2,118v.29A2.46,2.46,0,0,1,91,120.44l-19.28,11.2a1,1,0,0,1-1.47-.85v-.29a2.46,2.46,0,0,1,1.23-2.13l19.27-11.2A1,1,0,0,1,92.2,118Z" transform="translate(-32.3 -24.51)"/><path class="cls-10" d="M71.17,140.09a.79.79,0,0,1-.4-.1,1.36,1.36,0,0,1-.53-1.21,3.19,3.19,0,0,1,1.38-2.63,1.05,1.05,0,0,1,1.07-.09,1.28,1.28,0,0,1,.52,1.17,3.22,3.22,0,0,1-1.41,2.67A1.23,1.23,0,0,1,71.17,140.09Zm1.11-3.84a1.15,1.15,0,0,0-.51.16,2.85,2.85,0,0,0-1.23,2.37,1,1,0,0,0,.38.94.73.73,0,0,0,.73-.08,3,3,0,0,0,1.26-2.4,1,1,0,0,0-.37-.92A.48.48,0,0,0,72.28,136.25Z" transform="translate(-32.3 -24.51)"/><path class="cls-10" d="M76,137.18a.77.77,0,0,1-.4-.11,1.31,1.31,0,0,1-.53-1.2,3.16,3.16,0,0,1,1.38-2.63,1,1,0,0,1,1.06-.09,1.28,1.28,0,0,1,.53,1.17A3.24,3.24,0,0,1,76.62,137,1.2,1.2,0,0,1,76,137.18Zm1.1-3.84a1,1,0,0,0-.5.16,2.85,2.85,0,0,0-1.23,2.37,1,1,0,0,0,.38.94.71.71,0,0,0,.72-.08,3,3,0,0,0,1.27-2.4,1,1,0,0,0-.38-.92A.44.44,0,0,0,77.1,133.34Z" transform="translate(-32.3 -24.51)"/><path class="cls-10" d="M80.83,134.44a.83.83,0,0,1-.41-.1,1.36,1.36,0,0,1-.53-1.21,3.18,3.18,0,0,1,1.38-2.62,1.06,1.06,0,0,1,1.07-.1,1.29,1.29,0,0,1,.52,1.18,3.24,3.24,0,0,1-1.41,2.67A1.31,1.31,0,0,1,80.83,134.44Zm1.1-3.83a1,1,0,0,0-.5.16,2.85,2.85,0,0,0-1.24,2.36,1.08,1.08,0,0,0,.38,1,.76.76,0,0,0,.73-.08,3,3,0,0,0,1.26-2.41,1,1,0,0,0-.37-.92A.55.55,0,0,0,81.93,130.61Z" transform="translate(-32.3 -24.51)"/><path class="cls-11" d="M181.86,33.09,142,56.1a4.72,4.72,0,0,0-2.36,4.09v17l18.94-10.94a1.9,1.9,0,0,1,2.84,1.64V84.39l20.92-12.08a4.73,4.73,0,0,0,2.37-4.1V34.72A1.89,1.89,0,0,0,181.86,33.09Z" transform="translate(-32.3 -24.51)"/><path class="cls-10" d="M160.77,81.2a.15.15,0,0,1-.05-.29,22.64,22.64,0,0,0,12.93-10.73c3.59-6.24,4.75-12.72,3.19-17.81-.06-.17-.16-.5-.2-.61a10,10,0,0,0-1.07-2.15l-.06-.1A8,8,0,0,0,172.88,47c-5.93-3.41-15.13,1.49-20.56,10.9a28.65,28.65,0,0,0-3.38,12.71,18.69,18.69,0,0,0,.05,2.21.16.16,0,0,1-.14.16.15.15,0,0,1-.16-.14,19.32,19.32,0,0,1-.05-2.25,29,29,0,0,1,3.41-12.83C157.57,48.22,167,43.27,173,46.72a8.7,8.7,0,0,1,2.78,2.62l.06.1a10.69,10.69,0,0,1,1.1,2.22c0,.11.15.45.19.58,1.6,5.21.43,11.78-3.19,18.08A23,23,0,0,1,160.81,81.2Z" transform="translate(-32.3 -24.51)"/><path class="cls-8" d="M168.32,58l7.12-4.58c1.56,5.1-.17,10.89-2.74,15.35l-5.14-2.95s.63-1.26.71-1.46a9.47,9.47,0,0,0,.48-1.45A6.44,6.44,0,0,0,168.32,58Z" transform="translate(-32.3 -24.51)"/><path class="cls-7" d="M171.94,48.7s0,0,.05,0a7,7,0,0,1,2.29,2.18l.06.08a9.41,9.41,0,0,1,.93,1.88c0,.1.14.45.17.52L168.32,58a3.22,3.22,0,0,0-1.1-1.07c-2.26-1.3-5.79.57-7.87,4.18l-2.17-1.24-3-1.72C158.89,50,166.83,45.77,171.94,48.7Z" transform="translate(-32.3 -24.51)"/><path class="cls-12" d="M139.63,93.69V77.15L118.7,89.22a4.74,4.74,0,0,0-2.36,4.09v33.51a1.89,1.89,0,0,0,2.83,1.64l39.87-23a4.7,4.7,0,0,0,2.37-4.09v-17L142.46,95.33A1.89,1.89,0,0,1,139.63,93.69Z" transform="translate(-32.3 -24.51)"/><path class="cls-13" d="M159.34,61.09l-2.16-1.25-3-1.72a23.75,23.75,0,0,0-3.3,10.59,15.06,15.06,0,0,0,0,1.91l6.95-4A10.08,10.08,0,0,1,159.34,61.09Z" transform="translate(-32.3 -24.51)"/><path class="cls-13" d="M167.56,65.79c-1.44,2.51-3.92,4.57-6.15,4.62v8.32c4.27-1.28,8.58-5.29,11.29-10Z" transform="translate(-32.3 -24.51)"/><path class="cls-14" d="M158.57,66.21l-.68.4-6.95,4-11.31,6.53V93.69a1.89,1.89,0,0,0,2.83,1.64l18.95-10.94V67.85A1.9,1.9,0,0,0,158.57,66.21Z" transform="translate(-32.3 -24.51)"/><path class="cls-15" d="M157.87,89.84l-.28.3c-.63,0-2.62-1.13-2.86-.77-.71,1.06,4,3.06,4,3.06s-1.1,0-1.46-.05a.82.82,0,0,0-.84.47c-.15.48.48.76.77.75l2.53.49a3.24,3.24,0,0,0,1,0l.68-.09a24.28,24.28,0,0,1,2.79.09V91.37a3,3,0,0,1-1.32-.44,12.44,12.44,0,0,0-1.8-1.05,5.72,5.72,0,0,0-2.1-.6A1.8,1.8,0,0,0,157.87,89.84Z" transform="translate(-32.3 -24.51)"/><path class="cls-16" d="M199,163.32c-.5-1.61-1.76-2.66-2.82-2.33s-1.2,1.82-1,3.52a2.52,2.52,0,0,0,.36.84,3.66,3.66,0,0,1,.44,1.77,4.7,4.7,0,0,0,.22,1.5,3.73,3.73,0,0,0,1.61,1.88,1.63,1.63,0,0,0,2.36-.74,3.64,3.64,0,0,0,.14-3.09C200.05,166.2,199.11,163.63,199,163.32Z" transform="translate(-32.3 -24.51)"/><path class="cls-16" d="M188,160.61a17.61,17.61,0,0,1-3.28,2.45,5.21,5.21,0,0,1-2.93.34c-.69-.17-.76-1.28-.35-1.86s4.64-4.82,4.64-4.82c0-.42-.17-1.11-.1-1.13,1.5-.57,3.8-.25,4.19.48v2.67a1.37,1.37,0,0,1-.85,1.26A9.82,9.82,0,0,0,188,160.61Z" transform="translate(-32.3 -24.51)"/><path class="cls-14" d="M200.73,103.54v5.4c0,.81-1.37,53.54-1.37,53.54,0,1.34-5.06,1.46-5-.27l-1.61-38.41-1.58-.57-.71,33.31c0,1.6-5.55,1.16-5.32-.13l-.78-43.83a9.68,9.68,0,0,1,.21-2.28Z" transform="translate(-32.3 -24.51)"/><path class="cls-17" d="M203.39,94.53l-2.07,6.88L200.91,114c-.71,4.65-16.18,3.28-16.18-2.78V90.07c0-3.6,2.59-5.21,5.24-4.93a5.91,5.91,0,0,1,1.71.44c.21.08,1.83-.8,2-.7L198,87.37l.85.51C201.7,89.59,203.39,91.2,203.39,94.53Z" transform="translate(-32.3 -24.51)"/><path class="cls-18" d="M196.45,81.21v6a.93.93,0,0,1-.49.71,4.2,4.2,0,0,1-3.34.23c-.61-.23-1-.57-1-.94v-4.8l2.26-2.93h.25Z" transform="translate(-32.3 -24.51)"/><path class="cls-15" d="M198,127.51l.11-2.35a2.81,2.81,0,0,1,.33-.89l.31-.55a3.77,3.77,0,0,0,.49-2l-.36-13a12.89,12.89,0,0,0-.07-1.52c-.25-2.27-.81-8.35-.95-10.22a.84.84,0,0,1,.8-.9l3.57-.19a.83.83,0,0,1,.89.82l.18,10.86a8.11,8.11,0,0,1,0,1.21l-1.34,14.08a18.19,18.19,0,0,0,.55,2.06,4.68,4.68,0,0,1,0,2.89c-.36,1.09-1,2.37-1.83,2.42-1.11.07-1.43-3.69-1.43-3.69a10.67,10.67,0,0,1-.2,1.25c-.11.36-.47.71-.74.62S197.83,128,198,127.51Z" transform="translate(-32.3 -24.51)"/><path class="cls-19" d="M183,114c0,2,3.15,4.31,3.56,4s-.37-12.42.63-20.4c.5-4,1.35-7.72,2.75-10a10,10,0,0,1,1.78-2.06s-.36-.15-.52-.19a5.18,5.18,0,0,0-4.13.3A4.44,4.44,0,0,0,184.31,90l-.4,8.85Z" transform="translate(-32.3 -24.51)"/><path class="cls-19" d="M201,118.09l.31-16.68,2.9-6.52c0-3.33-2.52-5.3-5.34-7l-.85-.51-1.58-.91.13.91c.24,1.59-3,7.82-4,12.06-1.29,5.58-2,20.11-1.69,20.36C191.49,120.24,200.6,120.74,201,118.09Z" transform="translate(-32.3 -24.51)"/><path class="cls-19" d="M196.94,97.43c.14,1.9.92,9,1.1,10.61a10.32,10.32,0,0,1,.06,1.36l.31,11.56c0,1.2,4.28,1.36,4.38.31L204,109.56a10.85,10.85,0,0,0,0-1.27l.22-13.4Z" transform="translate(-32.3 -24.51)"/><path class="cls-20" d="M196.45,81.21v.29a4,4,0,0,1-4.13,4,3.28,3.28,0,0,1-.52-.07l-.13,0V82.39l2.26-2.93.1-.12.15.12Z" transform="translate(-32.3 -24.51)"/><path class="cls-15" d="M189.62,75.48c-1.14,1.85-2,5.37-1,7.32a3,3,0,0,0,2.7,1.88,9.25,9.25,0,0,0,4.32-1.32A8.44,8.44,0,0,0,198.09,81c1.92-3,1.13-6-1.25-7.58C192.47,70.54,191.15,73,189.62,75.48Z" transform="translate(-32.3 -24.51)"/><path class="cls-3" d="M201.17,77.65a7.45,7.45,0,0,1-4.72,6v-1.2a3,3,0,0,0,.93-1.29c.11-.32-.41-.51-.93-.31l-.08,0a1.65,1.65,0,0,1-.92,0,.87.87,0,0,1-.64-1.22c1.56-3.69-2.76-4.54-3.83-5.75-.46.44-1.36,1.54-1.36,1.54a15.16,15.16,0,0,1,.7-1.79,4,4,0,0,1,4.18-2.47,8.29,8.29,0,0,1,.9.17C199.72,72.44,201.31,75.45,201.17,77.65Z" transform="translate(-32.3 -24.51)"/><path class="cls-15" d="M195.48,80.6c-.83.74-1.11,1.78-.63,2.32s1.54.38,2.37-.36,1.12-1.78.64-2.32S196.31,79.87,195.48,80.6Z" transform="translate(-32.3 -24.51)"/><path class="cls-19" d="M186.79,85.82c-1.65,1-9.87,6.28-10.29,6.47l-11.87-1.57c-1.15.07-1.69,4.1-.5,4.28l11.28,2.41a5.62,5.62,0,0,0,2.82-.12l7.91-2.4Z" transform="translate(-32.3 -24.51)"/><path class="cls-14" d="M106.24,190.08h1.6l50.66-29.2a3.68,3.68,0,0,1,3.66,0l15.29,8.83h1.46v1.82a1.85,1.85,0,0,1-.92,1.66l-51.36,29.59a3.63,3.63,0,0,1-3.66,0l-15.82-9.13a1.81,1.81,0,0,1-.91-1.61Z" transform="translate(-32.3 -24.51)"/><path class="cls-3" d="M124.8,202.62a3.07,3.07,0,0,0,1.51-.4l51.36-29.6a1.16,1.16,0,0,0,.58-1.06l0-.68a3,3,0,0,0,0-.52h-1l-15.44-8.92a3.07,3.07,0,0,0-1.51-.4,3,3,0,0,0-1.5.4L108,190.73h-1.13v.51s0,.81,0,.81a1.17,1.17,0,0,0,.59,1l15.82,9.14A3,3,0,0,0,124.8,202.62Z" transform="translate(-32.3 -24.51)"/><path class="cls-21" d="M178,167.92l-15.83-9.14a3.63,3.63,0,0,0-3.66,0l-51.35,29.6a1.83,1.83,0,0,0,0,3.17L123,200.68a3.68,3.68,0,0,0,3.66,0L178,171.09A1.83,1.83,0,0,0,178,167.92Z" transform="translate(-32.3 -24.51)"/><path class="cls-1" d="M172.37,169.72l1.79-1c.27-.16.3-.38.07-.5l-1.51-.8a1.09,1.09,0,0,0-.91.06l-1.79,1c-.27.15-.31.37-.08.49l1.52.8A1.09,1.09,0,0,0,172.37,169.72Z" transform="translate(-32.3 -24.51)"/><path class="cls-1" d="M165,174l1.79-1c.27-.15.3-.38.07-.5l-1.51-.79a1.09,1.09,0,0,0-.91.06l-1.79,1c-.27.16-.31.38-.08.5l1.52.8A1.09,1.09,0,0,0,165,174Z" transform="translate(-32.3 -24.51)"/><path class="cls-1" d="M168.68,171.84l1.79-1c.27-.16.3-.38.07-.5l-1.51-.8a1.06,1.06,0,0,0-.91.07l-1.79,1c-.27.16-.31.38-.08.5l1.52.8A1.06,1.06,0,0,0,168.68,171.84Z" transform="translate(-32.3 -24.51)"/><path class="cls-1" d="M143.67,186.23l1.79-1c.27-.15.31-.38.08-.5l-1.52-.79a1.05,1.05,0,0,0-.91.06l-1.79,1c-.27.16-.3.38-.07.5l1.51.8A1.06,1.06,0,0,0,143.67,186.23Z" transform="translate(-32.3 -24.51)"/><path class="cls-1" d="M161.3,176.09l1.8-1c.27-.15.3-.38.07-.5l-1.52-.79a1,1,0,0,0-.9.06l-1.79,1c-.27.16-.31.38-.08.5l1.52.8A1.06,1.06,0,0,0,161.3,176.09Z" transform="translate(-32.3 -24.51)"/><path class="cls-1" d="M136.46,190.4l1.79-1c.27-.15.3-.38.08-.5l-1.52-.79a1.05,1.05,0,0,0-.91.06l-1.79,1c-.27.16-.3.38-.08.5l1.52.8A1.09,1.09,0,0,0,136.46,190.4Z" transform="translate(-32.3 -24.51)"/><path class="cls-1" d="M132.85,192.48l1.79-1c.27-.15.31-.38.08-.5l-1.52-.79a1,1,0,0,0-.9.06l-1.8,1c-.27.16-.3.38-.07.5l1.52.8A1.06,1.06,0,0,0,132.85,192.48Z" transform="translate(-32.3 -24.51)"/><path class="cls-1" d="M125.64,196.64l1.79-1c.27-.15.31-.38.08-.5l-1.52-.79a1.06,1.06,0,0,0-.9.06l-1.8,1c-.27.16-.3.38-.07.5l1.52.8A1.07,1.07,0,0,0,125.64,196.64Z" transform="translate(-32.3 -24.51)"/><path class="cls-1" d="M129.25,194.56l1.79-1c.27-.15.3-.38.07-.5l-1.51-.79a1.09,1.09,0,0,0-.91.06l-1.79,1c-.27.16-.31.38-.08.5l1.52.8A1.09,1.09,0,0,0,129.25,194.56Z" transform="translate(-32.3 -24.51)"/><path class="cls-1" d="M140.06,188.31l1.8-1c.27-.15.3-.38.07-.5l-1.52-.79a1,1,0,0,0-.9.06l-1.79,1c-.27.16-.31.38-.08.5l1.52.8A1,1,0,0,0,140.06,188.31Z" transform="translate(-32.3 -24.51)"/><path class="cls-1" d="M147.4,184.12l12.07-7c.27-.15.31-.38.07-.5l-1.53-.81a1.06,1.06,0,0,0-.91.07L145,182.87c-.27.16-.31.39-.08.51l1.54.81A1.06,1.06,0,0,0,147.4,184.12Z" transform="translate(-32.3 -24.51)"/><path class="cls-1" d="M160.05,163.25l1.79-1c.27-.16.3-.38.08-.5l-1.52-.8a1.09,1.09,0,0,0-.91.06l-1.79,1c-.27.15-.3.38-.07.5l1.51.79A1.09,1.09,0,0,0,160.05,163.25Z" transform="translate(-32.3 -24.51)"/><path class="cls-1" d="M152.67,167.5l1.79-1c.27-.15.31-.37.08-.5l-1.52-.79a1.09,1.09,0,0,0-.91.06l-1.79,1c-.27.16-.3.38-.07.5l1.51.8A1.09,1.09,0,0,0,152.67,167.5Z" transform="translate(-32.3 -24.51)"/><path class="cls-1" d="M156.41,165.34l1.79-1c.27-.15.3-.38.08-.5l-1.52-.79a1.05,1.05,0,0,0-.91.06l-1.79,1c-.27.16-.3.38-.07.5l1.51.8A1.06,1.06,0,0,0,156.41,165.34Z" transform="translate(-32.3 -24.51)"/><path class="cls-1" d="M148.93,169.65l1.79-1c.27-.16.31-.38.08-.5l-1.52-.8a1.06,1.06,0,0,0-.9.06l-1.8,1c-.27.15-.3.38-.07.5l1.51.79A1.09,1.09,0,0,0,148.93,169.65Z" transform="translate(-32.3 -24.51)"/><path class="cls-1" d="M145.19,171.8l1.79-1c.27-.16.31-.38.08-.5l-1.52-.8a1,1,0,0,0-.9.07l-1.8,1c-.27.15-.3.38-.07.5l1.52.8A1,1,0,0,0,145.19,171.8Z" transform="translate(-32.3 -24.51)"/><path class="cls-1" d="M141.45,174l1.79-1c.27-.15.31-.38.08-.5l-1.52-.8a1,1,0,0,0-.9.07l-1.8,1c-.27.16-.3.38-.07.5l1.52.8A1,1,0,0,0,141.45,174Z" transform="translate(-32.3 -24.51)"/><path class="cls-1" d="M137.71,176.11l1.79-1c.27-.15.31-.38.08-.5l-1.52-.79a1.06,1.06,0,0,0-.9.06l-1.8,1c-.27.16-.3.38-.07.5l1.52.8A1.06,1.06,0,0,0,137.71,176.11Z" transform="translate(-32.3 -24.51)"/><path class="cls-1" d="M134,178.26l1.8-1c.27-.16.3-.38.07-.5l-1.52-.8a1.06,1.06,0,0,0-.9.06l-1.79,1c-.28.15-.31.38-.08.5l1.52.79A1.06,1.06,0,0,0,134,178.26Z" transform="translate(-32.3 -24.51)"/><path class="cls-1" d="M130.23,180.41l1.8-1c.27-.16.3-.38.07-.5l-1.52-.8a1,1,0,0,0-.9.07l-1.79,1c-.27.15-.31.38-.08.5l1.52.8A1,1,0,0,0,130.23,180.41Z" transform="translate(-32.3 -24.51)"/><path class="cls-1" d="M126.49,182.56l1.8-1c.27-.15.3-.38.07-.5l-1.52-.8a1,1,0,0,0-.9.07l-1.79,1c-.27.16-.31.38-.08.5l1.52.8A1,1,0,0,0,126.49,182.56Z" transform="translate(-32.3 -24.51)"/><path class="cls-1" d="M122.75,184.72l1.8-1c.27-.15.3-.38.07-.5l-1.52-.79a1.07,1.07,0,0,0-.9.06l-1.79,1c-.27.16-.31.38-.08.5l1.52.8A1.06,1.06,0,0,0,122.75,184.72Z" transform="translate(-32.3 -24.51)"/><path class="cls-1" d="M119,186.87l1.79-1c.27-.16.3-.38.07-.5l-1.51-.8a1.09,1.09,0,0,0-.91.06l-1.79,1c-.27.15-.31.37-.08.5l1.52.79A1.09,1.09,0,0,0,119,186.87Z" transform="translate(-32.3 -24.51)"/><path class="cls-1" d="M113.46,190l3.38-1.95c.26-.15.29-.36.07-.47l-1.45-.77a1,1,0,0,0-.86.06l-3.38,2c-.26.15-.29.36-.07.48l1.45.76A1,1,0,0,0,113.46,190Z" transform="translate(-32.3 -24.51)"/><path class="cls-1" d="M153.8,170.24l1.79-1c.27-.15.31-.38.08-.5l-1.52-.79a1,1,0,0,0-.9.06l-1.8,1c-.27.16-.3.38-.07.5l1.52.8A1.07,1.07,0,0,0,153.8,170.24Z" transform="translate(-32.3 -24.51)"/><path class="cls-1" d="M157.54,168.08l1.8-1c.27-.16.3-.38.07-.5l-1.52-.8a1,1,0,0,0-.9.07l-1.79,1c-.27.15-.31.38-.08.5l1.52.79A1,1,0,0,0,157.54,168.08Z" transform="translate(-32.3 -24.51)"/><path class="cls-1" d="M150.06,172.39l1.79-1c.27-.16.3-.38.07-.5l-1.51-.8a1.06,1.06,0,0,0-.91.07l-1.79,1c-.27.15-.3.38-.08.5l1.52.79A1.05,1.05,0,0,0,150.06,172.39Z" transform="translate(-32.3 -24.51)"/><path class="cls-1" d="M146.31,174.54l1.8-1c.27-.15.3-.38.07-.5l-1.52-.79a1,1,0,0,0-.9.06l-1.79,1c-.27.16-.31.38-.08.5l1.52.8A1,1,0,0,0,146.31,174.54Z" transform="translate(-32.3 -24.51)"/><path class="cls-1" d="M142.57,176.7l1.79-1c.27-.16.31-.38.08-.5l-1.52-.8a1,1,0,0,0-.9.07l-1.8,1c-.27.15-.3.38-.07.5l1.51.79A1.05,1.05,0,0,0,142.57,176.7Z" transform="translate(-32.3 -24.51)"/><path class="cls-1" d="M138.83,178.85l1.79-1c.27-.15.3-.38.07-.5l-1.51-.79a1.05,1.05,0,0,0-.91.06l-1.79,1c-.27.16-.31.38-.08.5l1.52.8A1.06,1.06,0,0,0,138.83,178.85Z" transform="translate(-32.3 -24.51)"/><path class="cls-1" d="M135.08,181l1.8-1c.27-.16.3-.38.07-.5l-1.52-.8a1.06,1.06,0,0,0-.9.06l-1.79,1c-.28.15-.31.38-.08.5l1.52.79A1,1,0,0,0,135.08,181Z" transform="translate(-32.3 -24.51)"/><path class="cls-1" d="M131.34,183.16l1.79-1c.27-.15.31-.38.08-.5l-1.52-.79a1.05,1.05,0,0,0-.91.06l-1.79,1c-.27.16-.3.38-.07.5l1.51.8A1.06,1.06,0,0,0,131.34,183.16Z" transform="translate(-32.3 -24.51)"/><path class="cls-1" d="M127.6,185.32l1.79-1c.27-.16.3-.38.07-.5L128,183a1.09,1.09,0,0,0-.91.06l-1.79,1c-.27.15-.31.38-.08.5l1.52.79A1.09,1.09,0,0,0,127.6,185.32Z" transform="translate(-32.3 -24.51)"/><path class="cls-1" d="M123.85,187.47l1.79-1c.28-.15.31-.38.08-.5l-1.52-.79a1,1,0,0,0-.9.06l-1.8,1c-.27.16-.3.38-.07.5l1.52.8A1,1,0,0,0,123.85,187.47Z" transform="translate(-32.3 -24.51)"/><path class="cls-1" d="M120.11,189.63l1.79-1c.27-.16.31-.38.08-.5l-1.52-.8a1.09,1.09,0,0,0-.91.06l-1.79,1c-.27.15-.3.38-.07.5l1.51.79A1.09,1.09,0,0,0,120.11,189.63Z" transform="translate(-32.3 -24.51)"/><path class="cls-1" d="M116.41,191.76l1.79-1c.27-.16.31-.38.08-.5l-1.52-.8a1.06,1.06,0,0,0-.9.06l-1.8,1c-.27.16-.3.38-.07.5l1.52.8A1.06,1.06,0,0,0,116.41,191.76Z" transform="translate(-32.3 -24.51)"/><path class="cls-1" d="M161.31,165.86l3.38-2c.26-.15.29-.36.07-.48l-1.45-.76a1,1,0,0,0-.87.06l-3.38,2c-.26.15-.29.36-.07.48l1.45.76A1,1,0,0,0,161.31,165.86Z" transform="translate(-32.3 -24.51)"/><path class="cls-1" d="M156,172.37l1.79-1c.27-.16.3-.38.07-.5l-1.51-.8a1.06,1.06,0,0,0-.91.07l-1.79,1c-.27.16-.3.38-.08.5l1.52.8A1.06,1.06,0,0,0,156,172.37Z" transform="translate(-32.3 -24.51)"/><path class="cls-1" d="M159.72,170.22l1.79-1c.27-.16.3-.38.08-.5l-1.52-.8a1.09,1.09,0,0,0-.91.06l-1.79,1c-.27.15-.3.38-.07.5l1.51.79A1.09,1.09,0,0,0,159.72,170.22Z" transform="translate(-32.3 -24.51)"/><path class="cls-1" d="M152.24,174.53l1.79-1c.27-.15.3-.38.07-.5l-1.51-.79a1.09,1.09,0,0,0-.91.06l-1.79,1c-.27.16-.31.38-.08.5l1.52.8A1.09,1.09,0,0,0,152.24,174.53Z" transform="translate(-32.3 -24.51)"/><path class="cls-1" d="M148.49,176.68l1.8-1c.27-.16.3-.38.07-.5l-1.52-.8a1.07,1.07,0,0,0-.9.06l-1.79,1c-.27.15-.31.38-.08.5l1.52.79A1.06,1.06,0,0,0,148.49,176.68Z" transform="translate(-32.3 -24.51)"/><path class="cls-1" d="M144.75,178.83l1.8-1c.27-.16.3-.38.07-.5l-1.52-.8a1,1,0,0,0-.9.07l-1.79,1c-.27.16-.31.38-.08.5l1.52.8A1,1,0,0,0,144.75,178.83Z" transform="translate(-32.3 -24.51)"/><path class="cls-1" d="M141,181l1.8-1c.27-.15.3-.38.07-.5l-1.52-.79a1.06,1.06,0,0,0-.9.06l-1.8,1c-.27.16-.3.38-.07.5l1.52.8A1.06,1.06,0,0,0,141,181Z" transform="translate(-32.3 -24.51)"/><path class="cls-1" d="M137.27,183.14l1.79-1c.27-.16.31-.38.08-.5l-1.52-.8a1.06,1.06,0,0,0-.9.06l-1.8,1c-.27.15-.3.38-.07.5l1.52.79A1,1,0,0,0,137.27,183.14Z" transform="translate(-32.3 -24.51)"/><path class="cls-1" d="M133.53,185.29l1.79-1c.27-.15.31-.38.08-.5l-1.52-.8a1,1,0,0,0-.9.07l-1.8,1c-.27.16-.3.38-.07.5l1.52.8A1,1,0,0,0,133.53,185.29Z" transform="translate(-32.3 -24.51)"/><path class="cls-1" d="M129.79,187.45l1.79-1c.27-.15.31-.37.08-.5l-1.52-.79a1.09,1.09,0,0,0-.91.06l-1.79,1c-.27.16-.3.38-.07.5l1.51.8A1.09,1.09,0,0,0,129.79,187.45Z" transform="translate(-32.3 -24.51)"/><path class="cls-1" d="M126.05,189.6l1.79-1c.27-.16.3-.38.08-.5l-1.52-.8a1.06,1.06,0,0,0-.91.07l-1.79,1c-.27.15-.3.38-.07.5l1.51.79A1.05,1.05,0,0,0,126.05,189.6Z" transform="translate(-32.3 -24.51)"/><path class="cls-1" d="M163.66,167.9l4.07-2.34c.27-.15.3-.37.08-.48l-1.47-.77a1,1,0,0,0-.87.06l-4.08,2.35c-.26.15-.29.36-.07.48l1.47.77A1,1,0,0,0,163.66,167.9Z" transform="translate(-32.3 -24.51)"/><path class="cls-1" d="M119.67,193.22l4.08-2.34c.26-.15.29-.37.07-.48l-1.46-.77a1,1,0,0,0-.87.06L117.41,192c-.26.15-.3.36-.07.48l1.46.77A1,1,0,0,0,119.67,193.22Z" transform="translate(-32.3 -24.51)"/><path class="cls-1" d="M157.18,175.09l1.79-1c.27-.15.31-.38.08-.5l-1.52-.79a1.06,1.06,0,0,0-.9.06l-1.8,1c-.27.16-.3.38-.07.5l1.52.8A1.06,1.06,0,0,0,157.18,175.09Z" transform="translate(-32.3 -24.51)"/><path class="cls-1" d="M160.92,172.93l1.79-1c.27-.15.31-.38.08-.5l-1.52-.8a1,1,0,0,0-.9.07l-1.8,1c-.27.16-.3.38-.07.5l1.51.8A1.06,1.06,0,0,0,160.92,172.93Z" transform="translate(-32.3 -24.51)"/><path class="cls-1" d="M153.44,177.24l1.8-1c.27-.16.3-.38.07-.5l-1.52-.8a1.06,1.06,0,0,0-.9.06l-1.79,1c-.28.16-.31.38-.08.5l1.52.8A1.06,1.06,0,0,0,153.44,177.24Z" transform="translate(-32.3 -24.51)"/><path class="cls-1" d="M149.7,179.39l1.8-1c.27-.16.3-.38.07-.5l-1.52-.8a1.07,1.07,0,0,0-.9.06l-1.79,1c-.27.15-.31.38-.08.5l1.52.79A1,1,0,0,0,149.7,179.39Z" transform="translate(-32.3 -24.51)"/><path class="cls-1" d="M146,181.54l1.79-1c.27-.16.3-.38.07-.5l-1.51-.8a1.06,1.06,0,0,0-.91.07l-1.79,1c-.27.15-.31.38-.08.5l1.52.8A1.06,1.06,0,0,0,146,181.54Z" transform="translate(-32.3 -24.51)"/><path class="cls-1" d="M142.23,183.69l1.79-1c.27-.15.3-.38.08-.5l-1.52-.8a1.06,1.06,0,0,0-.91.07l-1.79,1c-.27.16-.3.38-.07.5l1.51.8A1.06,1.06,0,0,0,142.23,183.69Z" transform="translate(-32.3 -24.51)"/><path class="cls-1" d="M138.49,185.85l1.79-1c.27-.15.31-.38.08-.5l-1.52-.79a1,1,0,0,0-.9.06l-1.8,1c-.27.16-.3.38-.07.5l1.51.8A1.09,1.09,0,0,0,138.49,185.85Z" transform="translate(-32.3 -24.51)"/><path class="cls-1" d="M134.75,188l1.79-1c.27-.15.31-.37.08-.49l-1.52-.8a1.06,1.06,0,0,0-.9.06l-1.8,1c-.27.16-.3.38-.07.5l1.52.8A1.06,1.06,0,0,0,134.75,188Z" transform="translate(-32.3 -24.51)"/><path class="cls-1" d="M131,190.15l1.8-1c.27-.16.3-.38.07-.5l-1.52-.8a1.06,1.06,0,0,0-.9.06l-1.79,1c-.28.15-.31.38-.08.5l1.52.79A1.06,1.06,0,0,0,131,190.15Z" transform="translate(-32.3 -24.51)"/><path class="cls-1" d="M164.79,170.71l6.14-3.53c.28-.17.31-.4.08-.52l-1.57-.82a1.08,1.08,0,0,0-.92.07l-6.14,3.53c-.28.16-.31.39-.08.51l1.56.82A1.06,1.06,0,0,0,164.79,170.71Z" transform="translate(-32.3 -24.51)"/><path class="cls-1" d="M122.76,194.9l6.13-3.53c.28-.16.31-.39.08-.51l-1.56-.82a1.1,1.1,0,0,0-.93.07l-6.14,3.53c-.27.16-.31.39-.07.51l1.56.82A1.1,1.1,0,0,0,122.76,194.9Z" transform="translate(-32.3 -24.51)"/><path class="cls-14" d="M73.36,192.62H49.83v24.76c-.2,1.49.94,2.72,1.93,3.49,2.3,1.78,6.06,2.84,10.05,2.84A19.18,19.18,0,0,0,69,222.4c2.52-1,4.17-2.56,4.37-4.1C73.41,218,73.36,192.62,73.36,192.62Z" transform="translate(-32.3 -24.51)"/><path class="cls-19" d="M69,197.18a19.18,19.18,0,0,1-7.18,1.3c-4,0-7.75-1.06-10.05-2.83-1-.77-2.13-2-1.93-3.49s1.83-3.07,4.35-4.1a19,19,0,0,1,7.18-1.31c4,0,7.75,1.06,10,2.84,1,.77,2.14,2,1.94,3.48S71.51,196.14,69,197.18Z" transform="translate(-32.3 -24.51)"/><path class="cls-14" d="M61.36,193.47a17,17,0,0,1,8.24,1.91c1.6-.88,2.31-1.85,2.39-2.49.12-.89-.84-1.78-1.42-2.23-2.06-1.59-5.51-2.55-9.21-2.55a17.74,17.74,0,0,0-6.67,1.21c-2.43,1-3.41,2.25-3.51,3s.83,1.78,1.41,2.23a8.71,8.71,0,0,0,1,.64,9.76,9.76,0,0,1,1.12-.54A17.74,17.74,0,0,1,61.36,193.47Z" transform="translate(-32.3 -24.51)"/><path class="cls-22" d="M69.6,195.38a11.77,11.77,0,0,1-1.12.54,16.15,16.15,0,0,1-2.91.85,18.24,18.24,0,0,1-2.92.33l-.84,0h-.33a20.46,20.46,0,0,1-2.87-.23,15,15,0,0,1-5-1.67,10.7,10.7,0,0,1,1.12-.54,15.37,15.37,0,0,1,3.17-.9,17.42,17.42,0,0,1,2.74-.28c.25,0,.5,0,.76,0a21,21,0,0,1,2.26.12,17.32,17.32,0,0,1,2.69.49A12.55,12.55,0,0,1,69.6,195.38Z" transform="translate(-32.3 -24.51)"/><path class="cls-1" d="M74.89,217.86a3.16,3.16,0,0,1-1.57-.42l-2.9-1.58a1.38,1.38,0,0,1,1.32-2.42l2.92,1.6a.42.42,0,0,0,.44,0,.39.39,0,0,0,.21-.36v-8.63a1.9,1.9,0,0,0-1-1.68l-3.85-2a1.38,1.38,0,0,1,1.26-2.45l3.88,2a4.68,4.68,0,0,1,2.47,4.12v8.63a3.18,3.18,0,0,1-3.17,3.17Z" transform="translate(-32.3 -24.51)"/><path class="cls-3" d="M129.65,218.22v-1.17l-46.82,0,0,1a2.15,2.15,0,0,0,1.51,2.05l32,10.08a3.08,3.08,0,0,0,3.11-.76l9.5-9.5A2.3,2.3,0,0,0,129.65,218.22Z" transform="translate(-32.3 -24.51)"/><path class="cls-14" d="M96.37,205.56l32.2,9.93a1.54,1.54,0,0,1,.64,2.56l-9.75,9.74a3.09,3.09,0,0,1-3.11.77L83.89,218.33a1.54,1.54,0,0,1-.6-2.59l10.06-9.47A3.1,3.1,0,0,1,96.37,205.56Z" transform="translate(-32.3 -24.51)"/><path class="cls-5" d="M117.28,227.67a2.16,2.16,0,0,1-.62-.09l-32-10.12a.76.76,0,0,1-.29-1.27L94.05,207a2,2,0,0,1,1.41-.57,2.1,2.1,0,0,1,.61.09l31.82,9.84a.75.75,0,0,1,.31,1.24l-9.47,9.45A2,2,0,0,1,117.28,227.67Z" transform="translate(-32.3 -24.51)"/><polygon class="cls-23" points="126.92 170.32 108.56 175.24 119.47 187.06 137.83 182.14 126.92 170.32"/><polygon class="cls-9" points="100.01 189.27 116.48 179.77 132.94 189.27 116.48 198.78 100.01 189.27"/><polygon class="cls-23" points="152.41 161.53 168.88 152.03 185.34 161.53 168.88 171.04 152.41 161.53"/><path class="cls-15" d="M137.29,142.56l.2-.36c-.22-.61-1.93-2.16-1.66-2.51.8-1,4.23,2.89,4.23,2.89s-.37-1.05-.51-1.39a.83.83,0,0,1,.17-1c.42-.29.89.22,1,.5L142,143a3.46,3.46,0,0,1,.36,1l.13.68a24.7,24.7,0,0,0,1,2.65l-.81,3.09a25.89,25.89,0,0,0-2.67-3.34,14.09,14.09,0,0,1-1.59-1.4s-1.16-1.22-1.24-1.83A1.75,1.75,0,0,1,137.29,142.56Z" transform="translate(-32.3 -24.51)"/><path class="cls-24" d="M170.66,236.29a3.37,3.37,0,0,0,1.59,2.46c.22.16.52.37.85.57a23.18,23.18,0,0,1,2.89,2.35,2.38,2.38,0,0,0,1.56.72c1,.05,1.82-.26,1.7-1.72,0-.1,0-.27,0-.45l0-.23c0-.11-.08-2.81-.09-2.87-.11.49-.79-1.42-1.21-1.44-.64,0-.55,1.48-1,1.08-.77-.73-1.6-.39-3.72-1.48l-.41-.06c-1.64-.2-1.89.35-2.06.85A2.25,2.25,0,0,0,170.66,236.29Z" transform="translate(-32.3 -24.51)"/><path class="cls-24" d="M158.26,243s1.49-.15,2-.16c1.17-.05,3.74-.78,4.54-.23s2.93,1.16,3-.54l1.16.37c0,.36.13,2.47.13,2.6a3,3,0,0,1-.42,1.79c-.77,1.21-3.15.51-4.52.23l-4.07-.54a3.52,3.52,0,0,1-2.72-2.25A1.15,1.15,0,0,1,158.26,243Z" transform="translate(-32.3 -24.51)"/><path class="cls-16" d="M179.86,184.48l.48,1.76a8.78,8.78,0,0,1,.25,1.34,37.52,37.52,0,0,1,.07,6.36l-.34,4.64-1.06,38.11c.11,1.53-5,1.69-5-.15l-1-39.51-1.43.56-2.76,44.62c0,1.58-5.11,1.72-5.16-.17,0,0-1.51-45.35-1.68-52.46-.13-5,9-3.67,9-3.88L166.46,182Z" transform="translate(-32.3 -24.51)"/><path class="cls-19" d="M167.13,176.86s16.71,3,19.05-.69c1-1.64-5.14-18.44-5.14-18.44l-1.48-1.84-4.19,1.2c-.55.16-1.36-.69-1.36-.69.69,2.25,4.29,13.19,5.14,15.76.13.4-12.21,1.25-12.21,1.25C167.88,173.67,168,176.47,167.13,176.86Z" transform="translate(-32.3 -24.51)"/><path class="cls-25" d="M180,177.1l.49,8.51c-.22,4.32-17.6,5.12-19,2.23-.26-.56,0-7.17.21-11.53a27.33,27.33,0,0,0-.69-7.53l-.09-.36a5.7,5.7,0,0,0-2.93-3.77c-2.14-1.1-6.61-3-8-3.63a5.53,5.53,0,0,1-2.21-1.8l-7.07-9.3c-.78-.94,2.63-3.87,3.55-3.16l8.19,8.66,4.75,1.57a6.31,6.31,0,0,0,3.25.23,18.84,18.84,0,0,1,4.35-.16,10.3,10.3,0,0,0,2.09-.88l1-.53.09,0,2.9-1.55.23-.12c.12-.06.6.16,1.08.38a5.42,5.42,0,0,0,1.17.49,6.8,6.8,0,0,1,2-.44,6.59,6.59,0,0,1,.77,0,5.39,5.39,0,0,1,5.42,5.74L180,175A13.65,13.65,0,0,0,180,177.1Z" transform="translate(-32.3 -24.51)"/><path class="cls-15" d="M174.52,156.45c0,1.37-2.23,2.49-5,2.49-2.32,0-4.28-.81-4.81-1.88a10.3,10.3,0,0,0,2.09-.88l1-.53.09,0,2.9-1.55a8,8,0,0,1,1.31.26,5.21,5.21,0,0,1,1.17.49A2,2,0,0,1,174.52,156.45Z" transform="translate(-32.3 -24.51)"/><path class="cls-15" d="M163.92,150.33c.83,4.12,3.57,4.51,6.14,3.27a9.3,9.3,0,0,0,4.8-7.22c.26-3.75-2.11-6.2-5.22-6.41C162.55,139.48,163.63,148.91,163.92,150.33Z" transform="translate(-32.3 -24.51)"/><path class="cls-15" d="M173.12,148.39l-.29,8.18c0,.39-.38.74-1,1a4.45,4.45,0,0,1-3.52-.37.93.93,0,0,1-.48-.76s.28-8.19.28-8.19Z" transform="translate(-32.3 -24.51)"/><path class="cls-22" d="M169.85,145.2a4.26,4.26,0,0,1-3.51,1.73c-.41,0-.81-1-1.33-1.62-.34-.39-.86-.37-1.07-.55-.92-.82-1.06-3.78,1-5a8,8,0,0,1,5.46-.92c.2,0-1.11.68-1,.81A3.92,3.92,0,0,1,169.85,145.2Z" transform="translate(-32.3 -24.51)"/><path class="cls-22" d="M170.69,151.35l-.61-2.44a3.93,3.93,0,0,0-2.63-2.81l-2.44-.79c.15,2.06,1,3.76,2.92,5.77a5.76,5.76,0,0,0,2.86,1.76v-.39A4.07,4.07,0,0,0,170.69,151.35Z" transform="translate(-32.3 -24.51)"/><path class="cls-22" d="M170.4,138.88c-3-.26-5.41,2.18-5.42,5.78,0,.22,0,.44,0,.65l2.44.79a3.93,3.93,0,0,1,2.63,2.81l.61,2.44a4.07,4.07,0,0,1,.11,1.1v.39c1.83.41,3.92-.94,4.62-3.5C175.79,148,179,139.67,170.4,138.88Z" transform="translate(-32.3 -24.51)"/><path class="cls-15" d="M166,149.47c-.68.85-.79,1.89-.24,2.34s1.54.11,2.22-.73.8-1.89.25-2.33S166.63,148.63,166,149.47Z" transform="translate(-32.3 -24.51)"/><path class="cls-17" d="M85.1,87V99.59a4.72,4.72,0,0,1-2.36,4.09l-39.87,23A1.88,1.88,0,0,1,40,125.07V106.29a13.66,13.66,0,0,0,3,3.44,3.37,3.37,0,0,0,.37.24,3.09,3.09,0,0,0,2,.5c2-.24,3.27-2.86,4.35-6.06a3.58,3.58,0,0,0,.11-.35c1.79-5.4,2.93-12.28,5.15-12.32,2.45,0,4.1,8.28,6.24,12.22,0,.07.07.13.1.19.13.22.26.43.38.6l.28.37a2.4,2.4,0,0,0,.37.4,2.27,2.27,0,0,0,.32.22,1.21,1.21,0,0,0,.76.24c1.36,0,2.35-2.37,3.35-5.1.05-.12.09-.25.14-.39l.18-.51c0-.12.1-.25.14-.38.25-.66.49-1.32.73-1.95,0-.06,0-.13.08-.19,1-2.57,2.19-4.73,3.82-4.81a2.48,2.48,0,0,1,1.81.81l.13.12a9.06,9.06,0,0,1,.85,1l.23.31c.09.13.19.25.29.38l.23.31c.9,1.23,1.82,2.35,3,2.25,1-.09,1.71-1,2.32-2.29l.18-.39a3.78,3.78,0,0,0,.22-.5l.15-.42c.49-1.2.91-2.54,1.39-3.75,0-.07,0-.14.09-.22C83.39,88.68,84.11,87.4,85.1,87Z" transform="translate(-32.3 -24.51)"/><path class="cls-10" d="M43.93,113.43a3.33,3.33,0,0,1-.75-.09,7.78,7.78,0,0,1-3.25-2.3.15.15,0,1,1,.21-.21,7.7,7.7,0,0,0,3.11,2.22c2.14.49,3.31-1.34,4.55-3.26a9.09,9.09,0,0,1,2.48-2.93,3.73,3.73,0,0,1,4.46.53,10.11,10.11,0,0,1,1,1.09c.85,1,1.81,2.11,2.82,2s1.41-1.31,1.69-1.94A21,21,0,0,0,61.51,105a.34.34,0,0,0,0-.12l.07-.2c.88-3,1.72-5.85,3.71-6a2.56,2.56,0,0,1,2.06.88,6.27,6.27,0,0,1,1,1.33c.57.89,1.23,1.89,2,1.89,1-.11,1.52-1.95,1.84-3,.06-.22.12-.42.17-.58s.13-.37.19-.55a11.48,11.48,0,0,1,1.93-4l.06-.07a3.13,3.13,0,0,1,3.15-1.09,6,6,0,0,1,1,.39,3.3,3.3,0,0,0,1.83.41,2.55,2.55,0,0,0,.62-.09,6.23,6.23,0,0,0,3.45-2.44l.29-.36a.15.15,0,0,1,.23.19l-.29.35a6.45,6.45,0,0,1-3.61,2.55,2.87,2.87,0,0,1-.66.1,3.55,3.55,0,0,1-2-.44,6,6,0,0,0-1-.37,2.84,2.84,0,0,0-2.86,1l-.06.07a11.13,11.13,0,0,0-1.86,3.89c-.07.19-.13.38-.19.56s-.11.35-.17.57c-.37,1.24-.92,3.12-2.11,3.26-1,0-1.65-1.07-2.26-2a6.1,6.1,0,0,0-1-1.27,2.28,2.28,0,0,0-1.82-.82c-1.8.17-2.61,2.93-3.47,5.85l-.06.18a1,1,0,0,1,0,.14,22.91,22.91,0,0,1-1.23,3.56c-.31.68-.89,2-1.92,2.12-1.19.16-2.2-1-3.1-2.07a9.64,9.64,0,0,0-1-1.06,3.44,3.44,0,0,0-4.11-.5A8.57,8.57,0,0,0,48.05,110C47,111.66,45.82,113.43,43.93,113.43Z" transform="translate(-32.3 -24.51)"/><path class="cls-8" d="M151.29,94.24v11.53l3.3-1.92V92.33Z" transform="translate(-32.3 -24.51)"/><path class="cls-8" d="M140.62,106.75v5.19c1.12-.64,2.23-1.29,3.3-1.92v-5.17Z" transform="translate(-32.3 -24.51)"/><path class="cls-8" d="M135.08,100v15.19l3.3-1.9V98Z" transform="translate(-32.3 -24.51)"/><path class="cls-8" d="M129.55,108.35v10l3.3-1.92v-10Z" transform="translate(-32.3 -24.51)"/><path class="cls-8" d="M124,101.12v20.42l3.31-1.9V99.21Z" transform="translate(-32.3 -24.51)"/><path class="cls-8" d="M146.15,82v26.71l3.31-1.91V80.12Z" transform="translate(-32.3 -24.51)"/><path class="cls-26" d="M93.87,217.69a3.62,3.62,0,0,1-1.65-3.33A4.6,4.6,0,0,1,95.31,211l.86,2c-1,.44-1.71,1.07-1.78,1.67a1.62,1.62,0,0,0,.79,1.32Z" transform="translate(-32.3 -24.51)"/><path class="cls-14" d="M99.44,219.3a9.45,9.45,0,0,1-5.57-1.61L95.18,216c1.73,1.3,5.18,1.56,7.52.56l.86,2A10.68,10.68,0,0,1,99.44,219.3Z" transform="translate(-32.3 -24.51)"/><path class="cls-9" d="M103.56,218.52l-.86-2c1-.44,1.71-1.07,1.79-1.67s-.47-1.08-.8-1.33c-1.73-1.3-5.17-1.55-7.52-.55l-.86-2c3.08-1.31,7.34-.95,9.69.82a3.61,3.61,0,0,1,1.65,3.33C106.48,216.51,105.35,217.75,103.56,218.52Z" transform="translate(-32.3 -24.51)"/><path class="cls-10" d="M70.39,152.39a.15.15,0,0,1-.13-.07.16.16,0,0,1,.06-.21l23.33-13.52a.15.15,0,0,1,.2,0,.16.16,0,0,1,0,.21L70.47,152.37A.11.11,0,0,1,70.39,152.39Z" transform="translate(-32.3 -24.51)"/><path class="cls-10" d="M70.39,118a.16.16,0,0,1-.13-.08.15.15,0,0,1,.06-.2l23.33-13.53a.15.15,0,0,1,.2.06.15.15,0,0,1,0,.2L70.47,118Z" transform="translate(-32.3 -24.51)"/><path class="cls-10" d="M70.39,154.35a.16.16,0,0,1-.13-.08.15.15,0,0,1,.06-.2l39.18-22.72a.14.14,0,0,1,.2.06.15.15,0,0,1,0,.2L70.47,154.33Z" transform="translate(-32.3 -24.51)"/><path class="cls-1" d="M34.94,147.41l-2.64-2.64,2.64-2.64,2.64,2.64Zm-2.21-2.64L34.94,147l2.22-2.21-2.22-2.22Z" transform="translate(-32.3 -24.51)"/><path class="cls-1" d="M193.69,60.76l-2.64-2.64,2.64-2.64,2.64,2.64Zm-2.22-2.64,2.22,2.22,2.21-2.22-2.21-2.22Z" transform="translate(-32.3 -24.51)"/><path class="cls-17" d="M96.86,54.58a1.94,1.94,0,1,1-2-1.87A2,2,0,0,1,96.86,54.58Z" transform="translate(-32.3 -24.51)"/><path class="cls-27" d="M128.52,118.92a.15.15,0,0,1-.15-.15V104.49a.15.15,0,1,1,.3,0v14.28A.15.15,0,0,1,128.52,118.92Z" transform="translate(-32.3 -24.51)"/><path class="cls-27" d="M134,116a.15.15,0,0,1-.15-.15V109a.15.15,0,1,1,.3,0v6.92A.15.15,0,0,1,134,116Z" transform="translate(-32.3 -24.51)"/><path class="cls-27" d="M139.48,112.83a.15.15,0,0,1-.15-.15V96.45a.15.15,0,1,1,.3,0v16.23A.15.15,0,0,1,139.48,112.83Z" transform="translate(-32.3 -24.51)"/><path class="cls-27" d="M145,109.58a.15.15,0,0,1-.15-.15v-8.68a.15.15,0,0,1,.15-.15.15.15,0,0,1,.15.15v8.68A.14.14,0,0,1,145,109.58Z" transform="translate(-32.3 -24.51)"/><path class="cls-27" d="M150.45,106.44a.15.15,0,0,1-.15-.15V85.87a.14.14,0,0,1,.15-.15.15.15,0,0,1,.15.15v20.42A.15.15,0,0,1,150.45,106.44Z" transform="translate(-32.3 -24.51)"/><path class="cls-10" d="M105.41,222a.13.13,0,0,1-.11,0,.15.15,0,0,1,0-.21l8.67-8.24a.15.15,0,0,1,.21.22L105.52,222A.15.15,0,0,1,105.41,222Z" transform="translate(-32.3 -24.51)"/><path class="cls-10" d="M107.39,222.64a.16.16,0,0,1-.11,0,.14.14,0,0,1,0-.21l3.95-3.76a.15.15,0,0,1,.21.22l-4,3.76A.18.18,0,0,1,107.39,222.64Z" transform="translate(-32.3 -24.51)"/><path class="cls-10" d="M114.09,218.75a.16.16,0,0,1-.11-.05.15.15,0,0,1,0-.21l4-3.76a.15.15,0,0,1,.21,0,.15.15,0,0,1,0,.21l-4,3.76A.21.21,0,0,1,114.09,218.75Z" transform="translate(-32.3 -24.51)"/><path class="cls-10" d="M111.34,223.83a.16.16,0,0,1-.11-.05.15.15,0,0,1,0-.21l8.67-8.24a.15.15,0,0,1,.21.21l-8.67,8.25A.21.21,0,0,1,111.34,223.83Z" transform="translate(-32.3 -24.51)"/></svg>