<svg id="Layer_1" data-name="Layer 1" xmlns="http://www.w3.org/2000/svg" xmlns:xlink="http://www.w3.org/1999/xlink" viewBox="0 0 157.01 176.58"><defs><style>.cls-1{fill:#d0dbf8;}.cls-2{fill:#fcbac0;}.cls-3{fill:#3c2da1;}.cls-4{fill:#27145a;}.cls-5{fill:#d39b40;}.cls-6{fill:#ffbe4a;}.cls-7{fill:url(#linear-gradient);}.cls-8{fill:#33e7d2;}.cls-9{fill:url(#linear-gradient-2);}.cls-10{fill:#005584;}.cls-11{fill:#4290c3;}.cls-12{fill:#c7d1e9;}.cls-13{fill:#009de2;}.cls-14{fill:#002c38;}.cls-15{fill:#ef8f9b;}.cls-16{fill:#003851;}.cls-17{fill:#f7f9ff;}.cls-18{fill:#a2b7e8;}.cls-19{fill:#007cb2;}.cls-20{fill:#003a49;}.cls-21{fill:#003244;}.cls-22{fill:#4e90f9;}.cls-23{fill:#3870ef;}.cls-24{fill:#5a43db;}.cls-25{fill:#ffbc3f;}.cls-26{fill:#2f761b;}.cls-27{fill:#211155;}</style><linearGradient id="linear-gradient" x1="280.26" y1="358.65" x2="348.11" y2="358.65" gradientUnits="userSpaceOnUse"><stop offset="0" stop-color="#0bc0cf"/><stop offset="1" stop-color="#33e7d2"/></linearGradient><linearGradient id="linear-gradient-2" x1="314.16" y1="331.49" x2="314.16" y2="277.99" gradientUnits="userSpaceOnUse"><stop offset="0" stop-color="#7af6e4"/><stop offset="0.5" stop-color="#a8f9ed"/><stop offset="1" stop-color="#d9fcf7"/></linearGradient></defs><path class="cls-1" d="M394.69,318.93a3.2,3.2,0,0,1-1.5,2.33c-.22.16-.5.35-.81.55a20.22,20.22,0,0,0-2.74,2.23,2.31,2.31,0,0,1-1.49.69c-.92,0-1.73-.25-1.62-1.64,0-.09,0-.26,0-.42l0-.23c0-.1.08-2.67.09-2.73.11.47.75-1.35,1.15-1.36.61,0,.52,1.41.93,1,.74-.7,1.52-.38,3.54-1.41l.38-.07c1.57-.18,1.81.34,2,.81C394.66,318.79,394.68,318.86,394.69,318.93Z" transform="translate(-267.13 -248.9)"/><path class="cls-1" d="M405.93,325.19s-1.47-.14-2-.16c-1.16,0-3.7-.77-4.49-.22s-2.91,1.15-2.94-.53l-1.14.37c0,.35-.13,2.44-.13,2.57a3,3,0,0,0,.42,1.77c.76,1.2,3.12.5,4.47.23l4-.54a3.52,3.52,0,0,0,2.69-2.23A1.16,1.16,0,0,0,405.93,325.19Z" transform="translate(-267.13 -248.9)"/><path class="cls-1" d="M392.49,298.64s-.73,20.51-.73,20.51c0,1.75-5.71,1.63-5.61.17l-.38-20.67Z" transform="translate(-267.13 -248.9)"/><path class="cls-1" d="M400.68,324.57c0,1.44-5.18,2.31-5.55.43l-2.6-21.26h8.52Z" transform="translate(-267.13 -248.9)"/><path class="cls-2" d="M291.49,289.92l5.44-1.23V289c1.36,4.43,2.19,19.29,2.32,20.16.07.38.5,1.85.56,2.21a1,1,0,0,0,0,.18c0,.1,0,.17,0,.25s0,.31,0,.41a1.49,1.49,0,0,1-1.55,1.57,2.23,2.23,0,0,1-1.43-.66,13.46,13.46,0,0,0-2.28-1.78c-.3-.19-.58-.38-.78-.53a4.52,4.52,0,0,1-.77-.72,2.6,2.6,0,0,1-.68-1.52c0-.06,0-.13.05-.21a1.18,1.18,0,0,1,.47-.61,1.14,1.14,0,0,1,.6-.18h.3l.51,0a4.06,4.06,0,0,1,1.69.65l-4.17-16a11.08,11.08,0,0,1-.38-1.8,3.21,3.21,0,0,1-.07-.53Z" transform="translate(-267.13 -248.9)"/><path class="cls-3" d="M292.4,308.58a3.06,3.06,0,0,0,1.45,2.24c.2.15.48.34.78.53a14.43,14.43,0,0,1,2.28,1.78,2.23,2.23,0,0,0,1.43.66c.88,0,1.66-.24,1.55-1.57,0-.09,0-.25,0-.41l0-.22c0-.1,0-.15,0-.21-.1.45-.6.57-1,.55a2.27,2.27,0,0,1-1.48-.53c-.71-.67-5.77-3.55-2.64-3.74l-.37-.06c-1.5-.18-1.73.32-1.88.77A2.09,2.09,0,0,0,292.4,308.58Z" transform="translate(-267.13 -248.9)"/><path class="cls-2" d="M282.13,312l2.84,0a2.74,2.74,0,0,0,2.07-.74,1,1,0,0,0,.33-.92c0-.23-.07-.49-.11-.78,0,0-1.51-10.61-2.16-19.48l6.33-2h.1l-.08.53-.06.41c.18,2.5-.37,15.31-.54,21.93a12.23,12.23,0,0,0,.32,3,3.65,3.65,0,0,1-.54,2.31c-.8,1-2.37.48-3.59.11l-3.59-1.06a3.23,3.23,0,0,1-2.29-2.27A1.05,1.05,0,0,1,282.13,312Z" transform="translate(-267.13 -248.9)"/><path class="cls-4" d="M282.13,312l1.82,0c-.73.13-1,.77-.35,1.34s7.41,2.21,7.58.67c0,.3,0,.55,0,.67a2.74,2.74,0,0,1-.54,1.59c-.79,1-2.37.47-3.59.11l-3.59-1.06a3.23,3.23,0,0,1-2.29-2.27A1.06,1.06,0,0,1,282.13,312Z" transform="translate(-267.13 -248.9)"/><path class="cls-5" d="M415.89,335.63l0,39.77c0,18.64-30.33,33.78-67.78,33.8l-.05-73.52Z" transform="translate(-267.13 -248.9)"/><path class="cls-6" d="M348.06,301.92c37.45,0,67.82,15.06,67.83,33.71l-67.81.05-25.63-31.25A129,129,0,0,1,348.06,301.92Z" transform="translate(-267.13 -248.9)"/><path class="cls-7" d="M348.06,309.23l.05,76.94-51,21.9c-10.46-5.93-16.8-13.71-16.81-22.23l-.05-76.57Z" transform="translate(-267.13 -248.9)"/><path class="cls-8" d="M297.06,309.26l.07,98.8c-10.46-5.93-16.81-13.7-16.82-22.22l-.05-76.57Z" transform="translate(-267.13 -248.9)"/><path class="cls-9" d="M322.44,278l25.62,31.24-51,22.26a40.41,40.41,0,0,1-12.5-10.35,19.56,19.56,0,0,1-4.32-11.87C280.25,295.14,297.69,283,322.44,278Z" transform="translate(-267.13 -248.9)"/><path class="cls-10" d="M297.12,384v24c12.42,7.06,30.67,11.51,51,11.49,37.45,0,67.79-15.15,67.78-33.8v-24l-67.81,15.8Z" transform="translate(-267.13 -248.9)"/><path class="cls-11" d="M297.12,384c.51.3,1,.61,1.58.89,12.38,6.55,29.94,10.62,49.42,10.61,37.45,0,67.8-15.15,67.79-33.8l-67.81,0Z" transform="translate(-267.13 -248.9)"/><path class="cls-12" d="M371.46,372.06a16.12,16.12,0,0,1-7-.5,11.93,11.93,0,0,0,.18-2.54l-.05-1.43.15-4.16,3-8.33,2.35,11.53.44,4.18Z" transform="translate(-267.13 -248.9)"/><path class="cls-2" d="M382,383.82a20.7,20.7,0,0,1,2.06,2.76L381,384.52l-7.05-5-.87-4.75-.38-2c1.4.11,2.5.18,2.58.16a.16.16,0,0,1,0,.09c-.26,2,2.34,5.33,5.06,8.84C380.85,382.44,381.44,383.14,382,383.82Z" transform="translate(-267.13 -248.9)"/><path class="cls-2" d="M395.11,420.09a2.13,2.13,0,0,1-1.44.56l-.13,0h-.86c-.16,0-.33-.06-.51-.11a5.32,5.32,0,0,1-1.65-.78l-2.74-1.92a2.25,2.25,0,0,1-.51-.22,2.76,2.76,0,0,1-.72-.64l-.38-.25a1,1,0,0,1-.42-.87,3.05,3.05,0,0,1,.05-.41,7,7,0,0,1,.83-2l.18-.32a6.33,6.33,0,0,0,0-1.79c0-.06,0-.12,0-.19l3.69-.77a8.62,8.62,0,0,0,1.73,5.65c.42.52.87,1,1.31,1.49.13.15.24.26.36.38a8.46,8.46,0,0,1,.78.67C394.94,419,395.57,419.67,395.11,420.09Z" transform="translate(-267.13 -248.9)"/><path class="cls-13" d="M386.16,416.84l4.89,3.37a4.92,4.92,0,0,0,3.49.89c.74-.13,1.6-.87,1.17-1.65,0,0-2-1.62-2.23-1.9,0,0-.72.6-1,.81a1.49,1.49,0,0,1-1.56-.08c-3-1.6-4.59-3.25-4.26-4.8C384.79,416,385.88,416.64,386.16,416.84Z" transform="translate(-267.13 -248.9)"/><path class="cls-14" d="M380.67,345.16a9.2,9.2,0,0,0-1.09-2.63,10.23,10.23,0,0,0-.28-3.19,7.3,7.3,0,0,0-3.46-4.91L375,339.8a3.71,3.71,0,0,0-1.14.3c-.29.12-3.56-8.47-3.56-8.47-2.82-1.16-6.5,1.76-7.71,5.07a6.78,6.78,0,0,0-.42,2.95c-1.87,1.25-3,4.18-2.6,7.19a7.51,7.51,0,0,0,1.33,3.49c-1.32,3.79-.18,7.52,2.61,8.36a4.45,4.45,0,0,0,3.1-.22,8.92,8.92,0,0,0,4.69-5.2,12,12,0,0,0,.36-1.22c1.41,2.35,3.68,3.46,5.8,2.53a5.16,5.16,0,0,0,2.37-2.24A9.79,9.79,0,0,0,380.67,345.16Z" transform="translate(-267.13 -248.9)"/><path class="cls-15" d="M385.71,367.66c1.48,1.12,3,2.16,3.77,2.76a18,18,0,0,0,1.79.87,2.38,2.38,0,0,1,.62-.52l3.18-1.81a1.89,1.89,0,0,0-.78-.13,8.59,8.59,0,0,1-3.12-.22,2.7,2.7,0,0,1-.42-.23,13,13,0,0,1-2.38-2.25Z" transform="translate(-267.13 -248.9)"/><path class="cls-12" d="M377.49,346.9l3.38,3.52s1.07,8.48,1.85,10c.67,1.28,7.43,6.69,7.22,7.18-.73,1.74-2.95,1.75-2.95,1.75-2.78-1.81-8.56-6-9.55-7.42-.84-1.22-1.94-13.66-1.94-13.66A3.17,3.17,0,0,1,377.49,346.9Z" transform="translate(-267.13 -248.9)"/><path class="cls-2" d="M381,384.52l-7.05-5-.87-4.75-.38-2c1.4.11,2.5.18,2.58.16a.16.16,0,0,1,0,.09c-.26,2,2.34,5.33,5.06,8.84.52.65,1.11,1.35,1.71,2a20.7,20.7,0,0,1,2.06,2.76Z" transform="translate(-267.13 -248.9)"/><path class="cls-2" d="M386.65,424.1a2.06,2.06,0,0,1-1.44.56l-.13,0H385a2.75,2.75,0,0,1-.4,0l-.13,0-.22,0a2.41,2.41,0,0,1-.52-.11,4.92,4.92,0,0,1-1.64-.77l-2.74-1.93a3,3,0,0,1-.51-.2,3.77,3.77,0,0,1-.73-.64l-.37-.27a1,1,0,0,1-.42-.87c0-.13,0-.26,0-.4a7.9,7.9,0,0,1,.84-2l.19-.31c0-.33,0-1.94,0-1.94,0-.61-.05-1.39-.14-2.27l4.06-.85c-.13,1-.27,1.95-.37,2.73a7.59,7.59,0,0,0,1.81,5.22,17.59,17.59,0,0,0,1.31,1.5c.12.15.24.25.36.38a5.75,5.75,0,0,1,.77.68C386.47,423,387.11,423.67,386.65,424.1Z" transform="translate(-267.13 -248.9)"/><path class="cls-16" d="M393.29,393.21c-.57,4.72-2.46,18.5-2.46,18.5-.13,1.3-4.08,1.26-4.3,0,0,0-1-16.58.65-22.74v-.44l-3.64-2.42-3.39-2.25-7.75-5.53-1-5.22-.41-2.24-.37-2c2.6-.14,4.71-.23,6.31-.26s2.7,1.65,2.93,2.12v.19l.24.18c3.67,3,13.27,11.48,13.41,14.79A38.76,38.76,0,0,1,393.29,393.21Z" transform="translate(-267.13 -248.9)"/><path class="cls-16" d="M385.56,389.26q-.1,1.13-.3,2.4l-3,24.08c-.16,1.06-4,1.31-4.25,0,0,0-2.62-17.42-.09-23.36v-.64l-10.48-7.83c-4.61-3.57-4.06-8.48-2.58-13.8,0,0,4,.34,6.93.55,1.54.12,2.75.2,2.83.18a.41.41,0,0,1,0,.1c-.29,2.2,2.57,5.86,5.56,9.73.58.72,1.23,1.49,1.89,2.24a23.87,23.87,0,0,1,2.27,3A6.29,6.29,0,0,1,385.56,389.26Z" transform="translate(-267.13 -248.9)"/><path class="cls-13" d="M377.38,421.17l4.88,3.37a4.93,4.93,0,0,0,3.5.89c.74-.13,1.92-1.19,1.49-2,0,0-2-1.63-2.23-1.9,0,0-.72.6-1,.81a1.49,1.49,0,0,1-1.56-.08c-3-1.6-4.59-3.25-4.26-4.81C376.33,420,377.1,421,377.38,421.17Z" transform="translate(-267.13 -248.9)"/><path class="cls-17" d="M381.73,370.84a19.58,19.58,0,0,1-7.66,3.06c-1.21.13-2.36.2-3.44.21a13.83,13.83,0,0,1-5.09-.79,1.8,1.8,0,0,1-1.08-1.92.09.09,0,0,1,0,0,20.45,20.45,0,0,0,.21-2.33l-.05-1.43.15-4.16.09-2.37-.17-.53-2-6.11c0-3.12,1.79-4.41,4.42-6,.2-.12.41-.26.63-.37a.94.94,0,0,1,.18-.11l2.17-1.26,1.84-1.08c.21-.09,1.72.74,1.92.66a5.67,5.67,0,0,1,1.59-.42c2.48-.25,5.49,2.11,5.49,5.52l-1,12.16A12.84,12.84,0,0,0,381.73,370.84Z" transform="translate(-267.13 -248.9)"/><path class="cls-12" d="M373.2,373.06a23.18,23.18,0,0,1-5-.28,10.94,10.94,0,0,1-3.75-1.43,20.45,20.45,0,0,0,.21-2.33l-.05-1.43.15-4.16.09-2.37-.17-.53a24.23,24.23,0,0,0,2.37-5.42l2,5.68c.39,1.14.83,2.27,1.3,3.37a41.72,41.72,0,0,1,1.88,5.3Z" transform="translate(-267.13 -248.9)"/><path class="cls-2" d="M369.69,347l0-.09v-7.19h4.91v6.89s.31.09.45.15c1,.4.39,2.42,0,2.72-.61.47-2.69-.19-4.48-.73A1.39,1.39,0,0,1,369.69,347Z" transform="translate(-267.13 -248.9)"/><path class="cls-15" d="M374.34,344.35l-.16,3c-.05.56-1.23.81-2.12.33a4,4,0,0,1-2.34-3.05l-.19-2.37Z" transform="translate(-267.13 -248.9)"/><path class="cls-2" d="M377.63,343.88c-1.06,3.75-3.52,3.9-5.71,2.54a5.52,5.52,0,0,1-2.88-3.93c-.13-1.11-.83-2.22-.81-3.13.06-3.5,2.34-5.58,5.12-5.53C379.68,333.94,378,342.59,377.63,343.88Z" transform="translate(-267.13 -248.9)"/><path class="cls-1" d="M370.91,378.1a1,1,0,0,1,.5-.91l14.2-8.22a2,2,0,0,1,2,0l8.65,5a1,1,0,0,1,.5.94v.55a1,1,0,0,1-.5.83l-14.21,8.21a2,2,0,0,1-2,0l-8.64-5a1,1,0,0,1-.5-.78v-.62Z" transform="translate(-267.13 -248.9)"/><path class="cls-4" d="M371.41,378.92l8.64,5a2,2,0,0,0,2,0l14.21-8.22a1,1,0,0,0,.34-.32v.07a.8.8,0,0,1-.41.68L382,384.34a1.87,1.87,0,0,1-.92.25,1.8,1.8,0,0,1-.91-.25l-8.65-5a.82.82,0,0,1-.41-.66C371.16,378.73,371.27,378.84,371.41,378.92Z" transform="translate(-267.13 -248.9)"/><path class="cls-18" d="M378.08,380.27l3.26,1.88a.77.77,0,0,0,.75,0l11.65-6.73a.38.38,0,0,0,0-.65l-3.26-1.88a.77.77,0,0,0-.75,0l-11.65,6.73A.38.38,0,0,0,378.08,380.27Z" transform="translate(-267.13 -248.9)"/><path class="cls-18" d="M380.75,383l4-9.78a2.72,2.72,0,0,1,1.22-1.39l12.47-7.12a1,1,0,0,1,1,.06l.06,0,.34.22a1.22,1.22,0,0,1,.63,1.57l-3.76,9.68a2.35,2.35,0,0,1-1,1.17l-12.89,7.4a1,1,0,0,1-.95,0l-.6-.38A1.17,1.17,0,0,1,380.75,383Z" transform="translate(-267.13 -248.9)"/><path class="cls-4" d="M385,373.27a2.48,2.48,0,0,1,1.07-1.21l12.49-7.12a.64.64,0,0,1,.41-.08,1,1,0,0,1,.39.12,1,1,0,0,0-.4.11l-12.68,7.17a2.45,2.45,0,0,0-1.08,1.21l-4,9.87a1.13,1.13,0,0,0,.07,1,1,1,0,0,1-.32-1.15Z" transform="translate(-267.13 -248.9)"/><path class="cls-2" d="M383.88,374a10.09,10.09,0,0,1-3.34,1.1,8.22,8.22,0,0,1-3.09-.83c-1-.38-2.61-1-4.38-1.63l1.12-3.21a15.89,15.89,0,0,0,3.38,1.68,4.27,4.27,0,0,0,.63.2c1.47.2,4.17-1.95,4.49-.5C382.69,370.83,385.63,372.4,383.88,374Z" transform="translate(-267.13 -248.9)"/><path class="cls-17" d="M377.54,370.91c-.82.26-1.45,2.34-1,3,0,0-10.2-2.27-12.69-5.37-1.21-1.51-1.62-9.22-1.16-14.37,0,0,1.22-2.67,2.79-2.61a2.72,2.72,0,0,1,2.61,2.58c.16,3.14-.11,10.1.24,11.3C368.59,366.27,377.54,370.91,377.54,370.91Z" transform="translate(-267.13 -248.9)"/><path class="cls-14" d="M369.68,331.45c1.63-1.21,3.32-.64,5.28-.12,3,.8,3.66,2,3.53,4.49a22.66,22.66,0,0,1-.4,3.61,13.83,13.83,0,0,0-.39-2.32s-.41.41-2,.52a14.29,14.29,0,0,1-2.85-.29,2.19,2.19,0,0,0-2.32,1.52,7.76,7.76,0,0,0-.43,2.47,7.78,7.78,0,0,0-.6-1.07c-.32-.48-1.36-.8-1.48-.49-.33.84.9,4.24.9,4.24C364.21,341.58,367.06,333.39,369.68,331.45Z" transform="translate(-267.13 -248.9)"/><path class="cls-2" d="M370.14,340.3c.51.9.45,1.89-.13,2.22s-1.47-.12-2-1-.45-1.88.13-2.22S369.63,339.41,370.14,340.3Z" transform="translate(-267.13 -248.9)"/><path class="cls-16" d="M285.28,288.8c.67-2,6.88-5.53,6.88-5.53a3.48,3.48,0,0,1,3.32-.08l7.9,4a4,4,0,0,0,.78.32c3.39-5.29,8.57-3.54,11.29-2.08a3.43,3.43,0,0,1,1.81,2.95,25.21,25.21,0,0,0,.37,3.62,12.5,12.5,0,0,1,0,5.71c-1.24,3.48-7,5.62-9,5.9a18,18,0,0,1-14.21-4.18l-8.12-6.86A3.53,3.53,0,0,1,285.28,288.8Z" transform="translate(-267.13 -248.9)"/><path class="cls-19" d="M318.53,279.14c-.68,7.85-.15,10.18-.57,12-1,4.34-11,4.08-14.33,1.57a2.22,2.22,0,0,1-1-2.34c.26-1.05.63-2.54.91-3.9a2,2,0,0,0,0-.24,9.4,9.4,0,0,0-.16-4.22c0-.09,0-.17-.07-.25a3.68,3.68,0,0,1-1.85-3.18,3.48,3.48,0,0,1,.26-1.34L300,271.71l0-.13a5.48,5.48,0,0,1,1.42-3.11,13.23,13.23,0,0,1,3-2.32l.16-.09.75-.46.27-.16.62-.35.68-.39,2.06-1.2.49-.28.28-.16h.08a2.67,2.67,0,0,1,.58.19,5.34,5.34,0,0,0,1.41.52,6,6,0,0,1,1.58-.42,4.77,4.77,0,0,1,3.78,1c1.33,1.11,1.57,2.85,1.69,4.26A51.58,51.58,0,0,1,318.53,279.14Z" transform="translate(-267.13 -248.9)"/><path class="cls-10" d="M305.67,279.14a21.19,21.19,0,0,1-2.07,7.08,9.4,9.4,0,0,0-.16-4.22c0-.09,0-.17-.07-.25a3.68,3.68,0,0,1-1.85-3.18,3.48,3.48,0,0,1,.26-1.34l-.47-1.46,3.87-2.63A14.34,14.34,0,0,1,305.67,279.14Z" transform="translate(-267.13 -248.9)"/><path class="cls-2" d="M303.06,259.74c.94,3.92,3.59,4.2,6,2.92a8.94,8.94,0,0,0,4.36-7.09c.12-3.62-2.24-5.89-5.23-6C301.37,249.36,302.73,258.38,303.06,259.74Z" transform="translate(-267.13 -248.9)"/><path class="cls-2" d="M311.83,257.55v7.87c0,.37-.34.72-1,.95a4.3,4.3,0,0,1-3.4-.22.9.9,0,0,1-.48-.73s0-7.87,0-7.87Z" transform="translate(-267.13 -248.9)"/><path class="cls-20" d="M313.77,258.44c-.87,3.67-3.08,3.38-5.62,2.75-2.78-.7-4-4.42-4.09-6.64-.12-3.38,2.09-5.51,4.89-5.61C315.34,248.72,314.08,257.17,313.77,258.44Z" transform="translate(-267.13 -248.9)"/><path class="cls-2" d="M304.66,257.8c-.55.74-.62,1.63-.13,2s1.32.05,1.88-.69.62-1.64.13-2S305.22,257.05,304.66,257.8Z" transform="translate(-267.13 -248.9)"/><path class="cls-21" d="M315.75,272.39c-6.68-5.78-2.71-11.63-4.41-13.55a4.34,4.34,0,0,1-.61-5.53,4,4,0,0,1,5.43-1.27C322.69,256.13,314.81,263.34,315.75,272.39Z" transform="translate(-267.13 -248.9)"/><path class="cls-20" d="M302.68,250.91c1.11-1.56,5.39-2.17,6.71-2,.2,0-1.82.67-1.66.79a3.69,3.69,0,0,1,.56,5.16,4,4,0,0,1-3.24,1.74H305a3.82,3.82,0,0,0,.95,4.14,3.15,3.15,0,0,1-.84-.42,3.71,3.71,0,0,1-1.31-4,2.94,2.94,0,0,1-.55-.3A3.69,3.69,0,0,1,302.68,250.91Z" transform="translate(-267.13 -248.9)"/><path class="cls-18" d="M284.14,273.16l3.48,12.49a.81.81,0,0,0,1.11.53l8.1-3.73a.89.89,0,0,0,.49-1.05l-3.57-12.66a.81.81,0,0,0-1.11-.52l-7.92,3.71A1,1,0,0,0,284.14,273.16Z" transform="translate(-267.13 -248.9)"/><path class="cls-1" d="M284.49,273.2,288,285.83a.8.8,0,0,0,1.11.52l8.1-3.72a.9.9,0,0,0,.49-1.06l-3.57-12.65a.8.8,0,0,0-1.11-.52l-8,3.76A.88.88,0,0,0,284.49,273.2Z" transform="translate(-267.13 -248.9)"/><path class="cls-17" d="M288.76,285.86a.24.24,0,0,1-.21-.18L285,273.06a.33.33,0,0,1,.18-.38l8-3.77.13,0a.25.25,0,0,1,.21.18l3.57,12.65a.33.33,0,0,1-.18.39l-8.1,3.73A.25.25,0,0,1,288.76,285.86Z" transform="translate(-267.13 -248.9)"/><path class="cls-2" d="M295.58,282.08c-2-.53-4.28-1.2-5.51-1.57l-.92-.28c-1.58-.13-3.95-4.43-4.62-3a1.6,1.6,0,0,0-1.28,2.53,6.94,6.94,0,0,0,2.61,2,6.55,6.55,0,0,0,2,.66,2.84,2.84,0,0,1,.31.06c.15.11,2.82,1.21,6.1,2.89Z" transform="translate(-267.13 -248.9)"/><path class="cls-19" d="M300.16,270.78s-2,9.92-2.37,11.19c-.06.21-8-2.13-8-2.13a3.39,3.39,0,0,0-1.33,3.86s10.29,4.84,12.35,3.62S306.41,275,306.47,273L304.66,267C303.54,267.62,300.5,269.33,300.16,270.78Z" transform="translate(-267.13 -248.9)"/><path class="cls-1" d="M379.47,299.34l1.38,11.26a19.26,19.26,0,0,0,3.85-1.93l9.32-6a3.66,3.66,0,0,0-3.21-6.52l-8.71,3.1A3.8,3.8,0,0,1,379.47,299.34Z" transform="translate(-267.13 -248.9)"/><path class="cls-1" d="M400.56,301.74a4.53,4.53,0,0,1-1.56,5.83c-2.37,1.55-6.64,4-9.23,5.6-4.57,2.85-8.91,3.3-14,2.55-1.93-.28-6.37-2.21-8-5.48s-.83-10.52-.83-10.52,8.93-7,13.57,1.84c.1.19.25.49.44.84a3.63,3.63,0,0,0,5.05,1.47l8.47-4.12A4.52,4.52,0,0,1,400.56,301.74Z" transform="translate(-267.13 -248.9)"/><path class="cls-22" d="M381.2,295.31l.32,3.58c0,.61,0,2.78-.1,4.2a8.55,8.55,0,0,1-.09,1c-.35,1.95-2.55,2.72-3.61,2.91-5.39,1-12.09-.93-11.93-4l-.43-21.41c.23-3.39,3-5.28,5.47-4.7a14,14,0,0,1,3.68,1.6c.21.1-.24-1.66,0-1.52l2.69,1.81.07.05,1.49,1,.85.58.57.42c2.55,1.86,4.64,4,4.42,7.17l-3.36,6.35-.07.14,0,.07Z" transform="translate(-267.13 -248.9)"/><path class="cls-23" d="M381.52,298.89c0,.61,0,2.78-.1,4.2a11.06,11.06,0,0,1-3-7.59v-6.19l2.79,6Z" transform="translate(-267.13 -248.9)"/><path class="cls-2" d="M372.6,271.89l-.52,7.45c0,.35.28.71.86,1a4.07,4.07,0,0,0,3.23,0,.84.84,0,0,0,.5-.65s.53-7.46.53-7.46Z" transform="translate(-267.13 -248.9)"/><path class="cls-18" d="M402.34,286.89l-3.46,12.49a.81.81,0,0,1-1.12.53l-8.1-3.72a.89.89,0,0,1-.49-1.05l3.55-12.66a.81.81,0,0,1,1.11-.52l7.93,3.7A1,1,0,0,1,402.34,286.89Z" transform="translate(-267.13 -248.9)"/><path class="cls-1" d="M402,286.93l-3.5,12.63a.82.82,0,0,1-1.12.53l-8.1-3.72a.9.9,0,0,1-.49-1.06l3.55-12.65a.81.81,0,0,1,1.12-.52l8,3.75A.89.89,0,0,1,402,286.93Z" transform="translate(-267.13 -248.9)"/><path class="cls-17" d="M397.74,299.59a.24.24,0,0,0,.21-.18l3.5-12.63a.34.34,0,0,0-.18-.38l-8-3.75a.25.25,0,0,0-.12,0,.24.24,0,0,0-.21.18l-3.56,12.66a.33.33,0,0,0,.19.38l8.1,3.72A.17.17,0,0,0,397.74,299.59Z" transform="translate(-267.13 -248.9)"/><path class="cls-2" d="M388.85,297.14c2.06-.54,4.37-1.23,5.63-1.61l.94-.28c1.61-.14,4-4.54,4.71-3.09a1.63,1.63,0,0,1,1.31,2.58,7,7,0,0,1-2.66,2,6.49,6.49,0,0,1-2.06.67l-.31.07c-.15.11-2.88,1.24-6.23,3Z" transform="translate(-267.13 -248.9)"/><path class="cls-22" d="M384.47,286.32s1.73,9.42,2.11,10.72c.07.21,8.15-2.2,8.15-2.2a3.45,3.45,0,0,1,1.36,4s-10.5,5-12.61,3.71-5.71-12.61-5.78-14.66l1.84-6C380.68,282.37,384.13,284.83,384.47,286.32Z" transform="translate(-267.13 -248.9)"/><path class="cls-24" d="M359.36,320.24a2.18,2.18,0,0,1-.08-4.35h.08a2.18,2.18,0,0,1,2.18,2.1,2.19,2.19,0,0,1-2.09,2.26Zm0-4.06h-.08a1.88,1.88,0,0,0,.07,3.76h.08a1.88,1.88,0,0,0-.07-3.76Z" transform="translate(-267.13 -248.9)"/><path class="cls-25" d="M342.5,287.14a2,2,0,1,1-2.1-1.95A2,2,0,0,1,342.5,287.14Z" transform="translate(-267.13 -248.9)"/><path class="cls-26" d="M323,387.58a2,2,0,1,1-2.11-1.95A2,2,0,0,1,323,387.58Z" transform="translate(-267.13 -248.9)"/><path class="cls-24" d="M307.35,373.1a.15.15,0,0,1-.15-.15l0-40.05a.15.15,0,0,1,.15-.15.15.15,0,0,1,.15.15l0,40.05A.14.14,0,0,1,307.35,373.1Z" transform="translate(-267.13 -248.9)"/><path class="cls-24" d="M315.17,368.42a.15.15,0,0,1-.15-.15V342.59a.15.15,0,0,1,.15-.15.15.15,0,0,1,.15.15v25.68A.15.15,0,0,1,315.17,368.42Z" transform="translate(-267.13 -248.9)"/><path class="cls-24" d="M323,363.87a.15.15,0,0,1-.15-.15V348.49a.15.15,0,0,1,.15-.15.14.14,0,0,1,.15.15v15.23A.15.15,0,0,1,323,363.87Z" transform="translate(-267.13 -248.9)"/><path class="cls-24" d="M330.81,359a.15.15,0,0,1-.15-.15v-6.25a.15.15,0,0,1,.3,0v6.25A.15.15,0,0,1,330.81,359Z" transform="translate(-267.13 -248.9)"/><path class="cls-27" d="M355.11,416.2a.15.15,0,0,1-.15-.15V398.4a.15.15,0,1,1,.3,0v17.65A.15.15,0,0,1,355.11,416.2Z" transform="translate(-267.13 -248.9)"/><path class="cls-27" d="M349.73,413.08a.15.15,0,0,1-.15-.15V402.46a.15.15,0,0,1,.15-.15.14.14,0,0,1,.15.15v10.47A.15.15,0,0,1,349.73,413.08Z" transform="translate(-267.13 -248.9)"/><path class="cls-27" d="M344.35,409.76a.15.15,0,0,1-.15-.15v-4.3a.15.15,0,1,1,.3,0v4.3A.15.15,0,0,1,344.35,409.76Z" transform="translate(-267.13 -248.9)"/><path class="cls-24" d="M355.79,279.9a2.35,2.35,0,0,1-1.23-.34,2.41,2.41,0,0,1-1.2-2.12,2.13,2.13,0,0,0-3.2-1.86.15.15,0,0,1-.2-.06.15.15,0,0,1,.05-.2,2.43,2.43,0,0,1,3.65,2.13,2.08,2.08,0,0,0,1,1.85,2.11,2.11,0,0,0,2.13,0,.14.14,0,0,1,.2.06.15.15,0,0,1-.05.2A2.48,2.48,0,0,1,355.79,279.9Z" transform="translate(-267.13 -248.9)"/><path class="cls-24" d="M419.69,359.31a.13.13,0,0,1-.13-.07,2.43,2.43,0,0,1,2.1-3.65,2.14,2.14,0,0,0,1.88-1,2.11,2.11,0,0,0,0-2.13.15.15,0,0,1,.05-.2.15.15,0,0,1,.21.06,2.4,2.4,0,0,1,0,2.43,2.36,2.36,0,0,1-2.11,1.19,2.12,2.12,0,0,0-1.86,1.06,2.1,2.1,0,0,0,0,2.14.15.15,0,0,1-.06.2A.1.1,0,0,1,419.69,359.31Z" transform="translate(-267.13 -248.9)"/><path class="cls-24" d="M281.08,373.82a2.43,2.43,0,0,1-1.24-.35,2.37,2.37,0,0,1-1.19-2.11,2.14,2.14,0,0,0-3.2-1.87.15.15,0,0,1-.21-.05.16.16,0,0,1,.06-.21,2.4,2.4,0,0,1,2.44,0,2.43,2.43,0,0,1,1.21,2.12,2.12,2.12,0,0,0,3.17,1.88.16.16,0,0,1,.21.05.16.16,0,0,1-.06.21A2.41,2.41,0,0,1,281.08,373.82Z" transform="translate(-267.13 -248.9)"/><path class="cls-24" d="M269.81,335.1a.16.16,0,0,1-.11-.05l-2.53-2.53a.15.15,0,0,1,0-.21l2.53-2.54a.15.15,0,0,1,.11,0,.13.13,0,0,1,.1,0l2.54,2.53a.16.16,0,0,1,0,.22l-2.53,2.53A.16.16,0,0,1,269.81,335.1Zm-2.32-2.69,2.32,2.32,2.32-2.32-2.32-2.32Z" transform="translate(-267.13 -248.9)"/><path class="cls-2" d="M380,274.3c-1.65,4-4.48,3.81-6.81,2.05a9.51,9.51,0,0,1-3.38-8.19c.49-3.81,3.35-5.8,6.51-5.4C383.48,263.68,380.52,272.92,380,274.3Z" transform="translate(-267.13 -248.9)"/><path class="cls-14" d="M381,263.53c-1.79-1.57-5.24-1.95-5.25-1.95-8.33-1-10,8-4.34,13.8a1.89,1.89,0,0,0,2.21.38,20,20,0,0,0,2.13-1.4c2.31-1.63,3.53-3.16,4.08-5.2,0,0,0-.09,0-.14.41-.29.9-.18,1.14-.32C382.12,268.06,382.85,265.12,381,263.53Z" transform="translate(-267.13 -248.9)"/><path class="cls-2" d="M378.35,272.24c.52,1,.42,2.06-.22,2.39s-1.57-.19-2.09-1.17-.42-2,.22-2.39S377.84,271.26,378.35,272.24Z" transform="translate(-267.13 -248.9)"/></svg>